<?xml version="1.0" encoding="UTF-8" standalone="no"?>
<!-- Created with Inkscape (http://www.inkscape.org/) -->

<svg
   version="1.1"
   id="svg1"
   width="353.23849"
   height="255.20963"
   viewBox="0 0 353.23849 255.20963"
   sodipodi:docname="poses_fraction_v3.svg"
   inkscape:version="1.3.2 (091e20ef0f, 2023-11-25, custom)"
   xmlns:inkscape="http://www.inkscape.org/namespaces/inkscape"
   xmlns:sodipodi="http://sodipodi.sourceforge.net/DTD/sodipodi-0.dtd"
   xmlns="http://www.w3.org/2000/svg"
   xmlns:svg="http://www.w3.org/2000/svg">
  <defs
     id="defs1">
    <clipPath
       clipPathUnits="userSpaceOnUse"
       id="clipPath13">
      <path
         d="m 259,170 h 5 v 8 h -5 z"
         transform="translate(-259.23063,-177.59375)"
         id="path13" />
    </clipPath>
    <clipPath
       clipPathUnits="userSpaceOnUse"
       id="clipPath15">
      <path
         d="m 121,183 h 2 v 8 h -2 z"
         transform="translate(-120.75197,-191.26563)"
         id="path15" />
    </clipPath>
    <clipPath
       clipPathUnits="userSpaceOnUse"
       id="clipPath17">
      <path
         d="m 123,184 h 5 v 7 h -5 z"
         transform="translate(-123.53197,-191.26563)"
         id="path17" />
    </clipPath>
    <clipPath
       clipPathUnits="userSpaceOnUse"
       id="clipPath19">
      <path
         d="m 128,185 h 6 v 6 h -6 z"
         transform="translate(-127.45197,-191.26563)"
         id="path19" />
    </clipPath>
    <clipPath
       clipPathUnits="userSpaceOnUse"
       id="clipPath21">
      <path
         d="m 134,185 h 4 v 6 h -4 z"
         transform="translate(-133.60197,-191.26563)"
         id="path21" />
    </clipPath>
    <clipPath
       clipPathUnits="userSpaceOnUse"
       id="clipPath23">
      <path
         d="m 138,185 h 5 v 6 h -5 z"
         transform="translate(-137.71197,-191.26563)"
         id="path23" />
    </clipPath>
    <clipPath
       clipPathUnits="userSpaceOnUse"
       id="clipPath25">
      <path
         d="m 144,184 h 4 v 7 h -4 z"
         transform="translate(-143.84197,-191.26563)"
         id="path25" />
    </clipPath>
    <clipPath
       clipPathUnits="userSpaceOnUse"
       id="clipPath27">
      <path
         d="m 148,183 h 2 v 8 h -2 z"
         transform="translate(-147.76197,-191.26563)"
         id="path27" />
    </clipPath>
    <clipPath
       clipPathUnits="userSpaceOnUse"
       id="clipPath29">
      <path
         d="m 151,185 h 6 v 6 h -6 z"
         transform="translate(-150.54197,-191.26563)"
         id="path29" />
    </clipPath>
    <clipPath
       clipPathUnits="userSpaceOnUse"
       id="clipPath31">
      <path
         d="m 157,185 h 6 v 6 h -6 z"
         transform="translate(-156.66197,-191.26563)"
         id="path31" />
    </clipPath>
    <clipPath
       clipPathUnits="userSpaceOnUse"
       id="clipPath45">
      <path
         d="M 0,0 H 265 V 192 H 0 Z"
         transform="scale(1,-1)"
         id="path45" />
    </clipPath>
    <clipPath
       clipPathUnits="userSpaceOnUse"
       id="clipPath47">
      <path
         d="M 27.316,0.398 H 256.453 V 163 H 27.316 Z"
         transform="scale(1.3333333)"
         id="path47" />
    </clipPath>
    <clipPath
       clipPathUnits="userSpaceOnUse"
       id="clipPath48">
      <path
         d="M 0,0 H 265 V 192 H 0 Z"
         transform="scale(1,-1)"
         id="path48" />
    </clipPath>
    <clipPath
       clipPathUnits="userSpaceOnUse"
       id="clipPath50">
      <path
         d="M 27.316,0.398 H 256.453 V 163 H 27.316 Z"
         transform="scale(1.3333333)"
         id="path50" />
    </clipPath>
  </defs>
  <sodipodi:namedview
     id="namedview1"
     pagecolor="#ffffff"
     bordercolor="#000000"
     borderopacity="0.25"
     inkscape:showpageshadow="2"
     inkscape:pageopacity="0.0"
     inkscape:pagecheckerboard="0"
     inkscape:deskcolor="#d1d1d1"
     inkscape:zoom="2.5223751"
     inkscape:cx="176.61925"
     inkscape:cy="127.45923"
     inkscape:window-width="1909"
     inkscape:window-height="1049"
     inkscape:window-x="0"
     inkscape:window-y="0"
     inkscape:window-maximized="1"
     inkscape:current-layer="g1">
    <inkscape:page
       x="0"
       y="0"
       inkscape:label="1"
       id="page1"
       width="353.23849"
       height="255.20963"
       margin="0"
       bleed="0" />
  </sodipodi:namedview>
  <g
     id="g1"
     inkscape:groupmode="layer"
     inkscape:label="1">
    <path
       id="path1"
       d="M 27.316,0.398 H 256.453 V 163 H 27.316 Z"
       style="fill:#ffffff;fill-opacity:1;fill-rule:nonzero;stroke:none"
       transform="scale(1.3333333)" />
    <path
       id="path2"
       d="m 37.68,-163 v -3.5"
       style="fill:none;stroke:#000000;stroke-width:0.8;stroke-linecap:butt;stroke-linejoin:round;stroke-miterlimit:10;stroke-dasharray:none;stroke-opacity:1"
       transform="scale(1.3333333,-1.3333333)" />
    <path
       id="path3"
       d="m 3.1749193,-6.6318309 c -0.5097657,0 -0.890625,0.2519531 -1.1484375,0.75 -0.2519532,0.4921875 -0.375,1.2421875 -0.375,2.25 0,1.0019531 0.1230468,1.7519531 0.375,2.25 0.2578125,0.49218746 0.6386718,0.73828121 1.1484375,0.73828121 0.515625,0 0.8964843,-0.24609375 1.1484375,-0.73828121 0.2578125,-0.4980469 0.3867187,-1.2480469 0.3867187,-2.25 0,-1.0078125 -0.1289062,-1.7578125 -0.3867187,-2.25 -0.2519532,-0.4980469 -0.6328125,-0.75 -1.1484375,-0.75 z m 0,-0.7851563 c 0.8203125,0 1.4443359,0.3251953 1.875,0.9726563 0.4277343,0.6416015 0.6445312,1.5791015 0.6445312,2.8125 0,1.227539 -0.2167969,2.165039 -0.6445312,2.81249996 -0.4306641,0.64160157 -1.0546875,0.9609375 -1.875,0.9609375 -0.8144532,0 -1.4384766,-0.31933593 -1.875,-0.9609375 C 0.86925519,-1.4667919 0.655388,-2.4042919 0.655388,-3.6318309 c 0,-1.2333985 0.21386719,-2.1708985 0.6445313,-2.8125 0.4365234,-0.647461 1.0605468,-0.9726563 1.875,-0.9726563 z m 0,0"
       style="fill:#000000;fill-opacity:1;fill-rule:nonzero;stroke:none"
       aria-label="0"
       transform="matrix(1.3333333,0,0,1.3333333,46.001149,236.79166)" />
    <path
       id="path4"
       d="m 89.887,-163 v -3.5"
       style="fill:none;stroke:#000000;stroke-width:0.8;stroke-linecap:butt;stroke-linejoin:round;stroke-miterlimit:10;stroke-dasharray:none;stroke-opacity:1"
       transform="scale(1.3333333,-1.3333333)" />
    <path
       id="path5"
       d="m 1.0782188,-7.2880809 h 3.8671875 v 0.8320312 H 1.9805626 v 1.78125 c 0.140625,-0.046875 0.28125,-0.082031 0.421875,-0.1054687 0.1464843,-0.023437 0.2929687,-0.035156 0.4335937,-0.035156 0.8203125,0 1.4648438,0.2226563 1.9335938,0.6679688 0.4746093,0.4453125 0.7148437,1.0488281 0.7148437,1.8046875 0,0.7910156 -0.2460937,1.40332028 -0.7382812,1.83984371 -0.4863282,0.43066407 -1.171875,0.64453125 -2.0625,0.64453125 -0.3046875,0 -0.6181641,-0.0292969 -0.9375,-0.08203125 -0.3134766,-0.046875 -0.6386719,-0.12304687 -0.97265629,-0.234375 V -1.1591747 c 0.28710939,0.1582031 0.58886719,0.27539064 0.90234379,0.35156251 0.3105468,0.0791016 0.6445312,0.1171875 0.9960937,0.1171875 0.5625,0 1.0078125,-0.14648437 1.3359375,-0.44531251 0.328125,-0.2958984 0.4921875,-0.6972656 0.4921875,-1.2070312 0,-0.4980469 -0.1640625,-0.8964844 -0.4921875,-1.1953125 -0.328125,-0.2958985 -0.7734375,-0.4453125 -1.3359375,-0.4453125 -0.2666016,0 -0.5332031,0.032227 -0.796875,0.09375 -0.2578125,0.055664 -0.5244141,0.1464843 -0.796875,0.2695312 z m 8.4580078,0.65625 c -0.5097656,0 -0.890625,0.2519531 -1.1484375,0.75 -0.2519531,0.4921875 -0.375,1.2421875 -0.375,2.25 0,1.0019531 0.1230469,1.7519531 0.375,2.25 0.2578125,0.49218746 0.6386719,0.73828121 1.1484375,0.73828121 0.5156254,0 0.8964844,-0.24609375 1.1484374,-0.73828121 0.257813,-0.4980469 0.386719,-1.2480469 0.386719,-2.25 0,-1.0078125 -0.128906,-1.7578125 -0.386719,-2.25 -0.251953,-0.4980469 -0.632812,-0.75 -1.1484374,-0.75 z m 0,-0.7851563 c 0.8203124,0 1.4443364,0.3251953 1.8750004,0.9726563 0.427734,0.6416015 0.644531,1.5791015 0.644531,2.8125 0,1.227539 -0.216797,2.165039 -0.644531,2.81249996 -0.430664,0.64160157 -1.054688,0.9609375 -1.8750004,0.9609375 -0.8144531,0 -1.4384765,-0.31933593 -1.875,-0.9609375 C 7.2305626,-1.4667919 7.0166954,-2.4042919 7.0166954,-3.6318309 c 0,-1.2333985 0.2138672,-2.1708985 0.6445312,-2.8125 0.4365235,-0.647461 1.0605469,-0.9726563 1.875,-0.9726563 z m 6.3603514,0.7851563 c -0.509765,0 -0.890625,0.2519531 -1.148437,0.75 -0.251953,0.4921875 -0.375,1.2421875 -0.375,2.25 0,1.0019531 0.123047,1.7519531 0.375,2.25 0.257812,0.49218746 0.638672,0.73828121 1.148437,0.73828121 0.515625,0 0.896485,-0.24609375 1.148438,-0.73828121 0.257812,-0.4980469 0.386718,-1.2480469 0.386718,-2.25 0,-1.0078125 -0.128906,-1.7578125 -0.386718,-2.25 -0.251953,-0.4980469 -0.632813,-0.75 -1.148438,-0.75 z m 0,-0.7851563 c 0.820313,0 1.444336,0.3251953 1.875,0.9726563 0.427735,0.6416015 0.644531,1.5791015 0.644531,2.8125 0,1.227539 -0.216796,2.165039 -0.644531,2.81249996 -0.430664,0.64160157 -1.054687,0.9609375 -1.875,0.9609375 -0.814453,0 -1.438476,-0.31933593 -1.875,-0.9609375 -0.430664,-0.64746096 -0.644531,-1.58496096 -0.644531,-2.81249996 0,-1.2333985 0.213867,-2.1708985 0.644531,-2.8125 0.436524,-0.647461 1.060547,-0.9726563 1.875,-0.9726563 z m 6.360352,0.7851563 c -0.509766,0 -0.890625,0.2519531 -1.148438,0.75 -0.251953,0.4921875 -0.375,1.2421875 -0.375,2.25 0,1.0019531 0.123047,1.7519531 0.375,2.25 0.257813,0.49218746 0.638672,0.73828121 1.148438,0.73828121 0.515625,0 0.896484,-0.24609375 1.148437,-0.73828121 0.257813,-0.4980469 0.386719,-1.2480469 0.386719,-2.25 0,-1.0078125 -0.128906,-1.7578125 -0.386719,-2.25 -0.251953,-0.4980469 -0.632812,-0.75 -1.148437,-0.75 z m 0,-0.7851563 c 0.820312,0 1.444336,0.3251953 1.875,0.9726563 0.427734,0.6416015 0.644531,1.5791015 0.644531,2.8125 0,1.227539 -0.216797,2.165039 -0.644531,2.81249996 -0.430664,0.64160157 -1.054688,0.9609375 -1.875,0.9609375 -0.814453,0 -1.438477,-0.31933593 -1.875,-0.9609375 -0.430664,-0.64746096 -0.644532,-1.58496096 -0.644532,-2.81249996 0,-1.2333985 0.213868,-2.1708985 0.644532,-2.8125 0.436523,-0.647461 1.060547,-0.9726563 1.875,-0.9726563 z m 6.357422,0.7851563 c -0.509766,0 -0.890625,0.2519531 -1.148438,0.75 -0.251953,0.4921875 -0.375,1.2421875 -0.375,2.25 0,1.0019531 0.123047,1.7519531 0.375,2.25 0.257813,0.49218746 0.638672,0.73828121 1.148438,0.73828121 0.515625,0 0.896484,-0.24609375 1.148437,-0.73828121 0.257813,-0.4980469 0.386719,-1.2480469 0.386719,-2.25 0,-1.0078125 -0.128906,-1.7578125 -0.386719,-2.25 -0.251953,-0.4980469 -0.632812,-0.75 -1.148437,-0.75 z m 0,-0.7851563 c 0.820312,0 1.444336,0.3251953 1.875,0.9726563 0.427734,0.6416015 0.644531,1.5791015 0.644531,2.8125 0,1.227539 -0.216797,2.165039 -0.644531,2.81249996 -0.430664,0.64160157 -1.054688,0.9609375 -1.875,0.9609375 -0.814454,0 -1.438477,-0.31933593 -1.875,-0.9609375 C 26.308688,-1.4667919 26.09482,-2.4042919 26.09482,-3.6318309 c 0,-1.2333985 0.213868,-2.1708985 0.644532,-2.8125 0.436523,-0.647461 1.060546,-0.9726563 1.875,-0.9726563 z m 0,0"
       style="fill:#000000;fill-opacity:1;fill-rule:nonzero;stroke:none"
       aria-label="50000"
       transform="matrix(1.3333333,0,0,1.3333333,98.652219,236.79166)" />
    <path
       id="path6"
       d="m 142.094,-163 v -3.5"
       style="fill:none;stroke:#000000;stroke-width:0.8;stroke-linecap:butt;stroke-linejoin:round;stroke-miterlimit:10;stroke-dasharray:none;stroke-opacity:1"
       transform="scale(1.3333333,-1.3333333)" />
    <path
       id="path7"
       d="M 1.2432406,-0.83104969 H 2.8487094 V -6.3857372 l -1.7460938,0.3515625 v -0.9023437 l 1.734375,-0.3515625 h 0.9960938 v 6.45703121 H 5.4385531 V 9.815625e-4 H 1.2432406 Z M 9.5371859,-6.6318309 c -0.5097656,0 -0.890625,0.2519531 -1.1484375,0.75 -0.2519531,0.4921875 -0.375,1.2421875 -0.375,2.25 0,1.0019531 0.1230469,1.7519531 0.375,2.25 0.2578125,0.49218746 0.6386719,0.73828121 1.1484375,0.73828121 0.5156251,0 0.8964841,-0.24609375 1.1484371,-0.73828121 0.257813,-0.4980469 0.386719,-1.2480469 0.386719,-2.25 0,-1.0078125 -0.128906,-1.7578125 -0.386719,-2.25 -0.251953,-0.4980469 -0.632812,-0.75 -1.1484371,-0.75 z m 0,-0.7851563 c 0.8203121,0 1.4443361,0.3251953 1.8750001,0.9726563 0.427734,0.6416015 0.644531,1.5791015 0.644531,2.8125 0,1.227539 -0.216797,2.165039 -0.644531,2.81249996 -0.430664,0.64160157 -1.054688,0.9609375 -1.8750001,0.9609375 -0.8144531,0 -1.4384765,-0.31933593 -1.875,-0.9609375 C 7.2315219,-1.4667919 7.0176547,-2.4042919 7.0176547,-3.6318309 c 0,-1.2333985 0.2138672,-2.1708985 0.6445312,-2.8125 0.4365235,-0.647461 1.0605469,-0.9726563 1.875,-0.9726563 z m 6.3574221,0.7851563 c -0.509766,0 -0.890625,0.2519531 -1.148438,0.75 -0.251953,0.4921875 -0.375,1.2421875 -0.375,2.25 0,1.0019531 0.123047,1.7519531 0.375,2.25 0.257813,0.49218746 0.638672,0.73828121 1.148438,0.73828121 0.515625,0 0.896484,-0.24609375 1.148437,-0.73828121 0.257813,-0.4980469 0.386719,-1.2480469 0.386719,-2.25 0,-1.0078125 -0.128906,-1.7578125 -0.386719,-2.25 -0.251953,-0.4980469 -0.632812,-0.75 -1.148437,-0.75 z m 0,-0.7851563 c 0.820312,0 1.444336,0.3251953 1.875,0.9726563 0.427734,0.6416015 0.644531,1.5791015 0.644531,2.8125 0,1.227539 -0.216797,2.165039 -0.644531,2.81249996 -0.430664,0.64160157 -1.054688,0.9609375 -1.875,0.9609375 -0.814453,0 -1.438477,-0.31933593 -1.875,-0.9609375 -0.430664,-0.64746096 -0.644531,-1.58496096 -0.644531,-2.81249996 0,-1.2333985 0.213867,-2.1708985 0.644531,-2.8125 0.436523,-0.647461 1.060547,-0.9726563 1.875,-0.9726563 z m 6.360351,0.7851563 c -0.509765,0 -0.890625,0.2519531 -1.148437,0.75 -0.251953,0.4921875 -0.375,1.2421875 -0.375,2.25 0,1.0019531 0.123047,1.7519531 0.375,2.25 0.257812,0.49218746 0.638672,0.73828121 1.148437,0.73828121 0.515625,0 0.896485,-0.24609375 1.148438,-0.73828121 0.257812,-0.4980469 0.386719,-1.2480469 0.386719,-2.25 0,-1.0078125 -0.128907,-1.7578125 -0.386719,-2.25 -0.251953,-0.4980469 -0.632813,-0.75 -1.148438,-0.75 z m 0,-0.7851563 c 0.820313,0 1.444336,0.3251953 1.875,0.9726563 0.427735,0.6416015 0.644532,1.5791015 0.644532,2.8125 0,1.227539 -0.216797,2.165039 -0.644532,2.81249996 -0.430664,0.64160157 -1.054687,0.9609375 -1.875,0.9609375 -0.814453,0 -1.438476,-0.31933593 -1.875,-0.9609375 -0.430664,-0.64746096 -0.644531,-1.58496096 -0.644531,-2.81249996 0,-1.2333985 0.213867,-2.1708985 0.644531,-2.8125 0.436524,-0.647461 1.060547,-0.9726563 1.875,-0.9726563 z m 6.360352,0.7851563 c -0.509766,0 -0.890625,0.2519531 -1.148438,0.75 -0.251953,0.4921875 -0.375,1.2421875 -0.375,2.25 0,1.0019531 0.123047,1.7519531 0.375,2.25 0.257813,0.49218746 0.638672,0.73828121 1.148438,0.73828121 0.515625,0 0.896484,-0.24609375 1.148437,-0.73828121 0.257813,-0.4980469 0.386719,-1.2480469 0.386719,-2.25 0,-1.0078125 -0.128906,-1.7578125 -0.386719,-2.25 -0.251953,-0.4980469 -0.632812,-0.75 -1.148437,-0.75 z m 0,-0.7851563 c 0.820312,0 1.444336,0.3251953 1.875,0.9726563 0.427734,0.6416015 0.644531,1.5791015 0.644531,2.8125 0,1.227539 -0.216797,2.165039 -0.644531,2.81249996 -0.430664,0.64160157 -1.054688,0.9609375 -1.875,0.9609375 -0.814453,0 -1.438477,-0.31933593 -1.875,-0.9609375 C 26.309647,-1.4667919 26.09578,-2.4042919 26.09578,-3.6318309 c 0,-1.2333985 0.213867,-2.1708985 0.644531,-2.8125 0.436523,-0.647461 1.060547,-0.9726563 1.875,-0.9726563 z m 6.360351,0.7851563 c -0.509765,0 -0.890625,0.2519531 -1.148437,0.75 -0.251953,0.4921875 -0.375,1.2421875 -0.375,2.25 0,1.0019531 0.123047,1.7519531 0.375,2.25 0.257812,0.49218746 0.638672,0.73828121 1.148437,0.73828121 0.515625,0 0.896485,-0.24609375 1.148438,-0.73828121 0.257812,-0.4980469 0.386719,-1.2480469 0.386719,-2.25 0,-1.0078125 -0.128907,-1.7578125 -0.386719,-2.25 -0.251953,-0.4980469 -0.632813,-0.75 -1.148438,-0.75 z m 0,-0.7851563 c 0.820313,0 1.444336,0.3251953 1.875,0.9726563 0.427735,0.6416015 0.644532,1.5791015 0.644532,2.8125 0,1.227539 -0.216797,2.165039 -0.644532,2.81249996 -0.430664,0.64160157 -1.054687,0.9609375 -1.875,0.9609375 -0.814453,0 -1.438476,-0.31933593 -1.875,-0.9609375 -0.430664,-0.64746096 -0.644531,-1.58496096 -0.644531,-2.81249996 0,-1.2333985 0.213867,-2.1708985 0.644531,-2.8125 0.436524,-0.647461 1.060547,-0.9726563 1.875,-0.9726563 z m 0,0"
       style="fill:#000000;fill-opacity:1;fill-rule:nonzero;stroke:none"
       aria-label="100000"
       transform="matrix(1.3333333,0,0,1.3333333,164.02203,236.79166)" />
    <path
       id="path8"
       d="m 194.301,-163 v -3.5"
       style="fill:none;stroke:#000000;stroke-width:0.8;stroke-linecap:butt;stroke-linejoin:round;stroke-miterlimit:10;stroke-dasharray:none;stroke-opacity:1"
       transform="scale(1.3333333,-1.3333333)" />
    <path
       id="path9"
       d="M 1.2432219,-0.83104969 H 2.8486906 V -6.3857372 l -1.7460937,0.3515625 v -0.9023437 l 1.734375,-0.3515625 h 0.9960937 v 6.45703121 H 5.4385344 V 9.815625e-4 H 1.2432219 Z m 6.196289,-6.45703121 h 3.8671871 v 0.8320312 H 8.3418547 v 1.78125 c 0.140625,-0.046875 0.28125,-0.082031 0.421875,-0.1054687 0.1464844,-0.023437 0.2929687,-0.035156 0.4335937,-0.035156 0.8203126,0 1.4648436,0.2226563 1.9335936,0.6679688 0.47461,0.4453125 0.714844,1.0488281 0.714844,1.8046875 0,0.7910156 -0.246094,1.40332028 -0.738281,1.83984371 -0.486328,0.43066407 -1.1718753,0.64453125 -2.0625003,0.64453125 -0.3046875,0 -0.6181641,-0.0292969 -0.9375,-0.08203125 -0.3134766,-0.046875 -0.6386719,-0.12304687 -0.9726563,-0.234375 V -1.1591747 c 0.2871094,0.1582031 0.5888672,0.27539064 0.9023438,0.35156251 0.3105469,0.0791016 0.6445312,0.1171875 0.9960937,0.1171875 0.5625,0 1.0078121,-0.14648437 1.3359371,-0.44531251 0.328125,-0.2958984 0.492188,-0.6972656 0.492188,-1.2070312 0,-0.4980469 -0.164063,-0.8964844 -0.492188,-1.1953125 -0.328125,-0.2958985 -0.7734371,-0.4453125 -1.3359371,-0.4453125 -0.2666015,0 -0.5332031,0.032227 -0.796875,0.09375 -0.2578125,0.055664 -0.524414,0.1464843 -0.796875,0.2695312 z m 8.4550781,0.65625 c -0.509766,0 -0.890625,0.2519531 -1.148437,0.75 -0.251954,0.4921875 -0.375,1.2421875 -0.375,2.25 0,1.0019531 0.123046,1.7519531 0.375,2.25 0.257812,0.49218746 0.638671,0.73828121 1.148437,0.73828121 0.515625,0 0.896484,-0.24609375 1.148438,-0.73828121 0.257812,-0.4980469 0.386718,-1.2480469 0.386718,-2.25 0,-1.0078125 -0.128906,-1.7578125 -0.386718,-2.25 -0.251954,-0.4980469 -0.632813,-0.75 -1.148438,-0.75 z m 0,-0.7851563 c 0.820313,0 1.444336,0.3251953 1.875,0.9726563 0.427734,0.6416015 0.644531,1.5791015 0.644531,2.8125 0,1.227539 -0.216797,2.165039 -0.644531,2.81249996 -0.430664,0.64160157 -1.054687,0.9609375 -1.875,0.9609375 -0.814453,0 -1.438476,-0.31933593 -1.875,-0.9609375 -0.430664,-0.64746096 -0.644531,-1.58496096 -0.644531,-2.81249996 0,-1.2333985 0.213867,-2.1708985 0.644531,-2.8125 0.436524,-0.647461 1.060547,-0.9726563 1.875,-0.9726563 z m 6.360352,0.7851563 c -0.509766,0 -0.890625,0.2519531 -1.148438,0.75 -0.251953,0.4921875 -0.375,1.2421875 -0.375,2.25 0,1.0019531 0.123047,1.7519531 0.375,2.25 0.257813,0.49218746 0.638672,0.73828121 1.148438,0.73828121 0.515625,0 0.896484,-0.24609375 1.148437,-0.73828121 0.257813,-0.4980469 0.386719,-1.2480469 0.386719,-2.25 0,-1.0078125 -0.128906,-1.7578125 -0.386719,-2.25 -0.251953,-0.4980469 -0.632812,-0.75 -1.148437,-0.75 z m 0,-0.7851563 c 0.820312,0 1.444336,0.3251953 1.875,0.9726563 0.427734,0.6416015 0.644531,1.5791015 0.644531,2.8125 0,1.227539 -0.216797,2.165039 -0.644531,2.81249996 -0.430664,0.64160157 -1.054688,0.9609375 -1.875,0.9609375 -0.814453,0 -1.438477,-0.31933593 -1.875,-0.9609375 -0.430664,-0.64746096 -0.644532,-1.58496096 -0.644532,-2.81249996 0,-1.2333985 0.213868,-2.1708985 0.644532,-2.8125 0.436523,-0.647461 1.060547,-0.9726563 1.875,-0.9726563 z m 6.360351,0.7851563 c -0.509765,0 -0.890625,0.2519531 -1.148437,0.75 -0.251953,0.4921875 -0.375,1.2421875 -0.375,2.25 0,1.0019531 0.123047,1.7519531 0.375,2.25 0.257812,0.49218746 0.638672,0.73828121 1.148437,0.73828121 0.515625,0 0.896485,-0.24609375 1.148438,-0.73828121 0.257812,-0.4980469 0.386718,-1.2480469 0.386718,-2.25 0,-1.0078125 -0.128906,-1.7578125 -0.386718,-2.25 -0.251953,-0.4980469 -0.632813,-0.75 -1.148438,-0.75 z m 0,-0.7851563 c 0.820313,0 1.444336,0.3251953 1.875,0.9726563 0.427735,0.6416015 0.644531,1.5791015 0.644531,2.8125 0,1.227539 -0.216796,2.165039 -0.644531,2.81249996 -0.430664,0.64160157 -1.054687,0.9609375 -1.875,0.9609375 -0.814453,0 -1.438476,-0.31933593 -1.875,-0.9609375 -0.430664,-0.64746096 -0.644531,-1.58496096 -0.644531,-2.81249996 0,-1.2333985 0.213867,-2.1708985 0.644531,-2.8125 0.436524,-0.647461 1.060547,-0.9726563 1.875,-0.9726563 z m 6.360352,0.7851563 c -0.509766,0 -0.890625,0.2519531 -1.148438,0.75 -0.251953,0.4921875 -0.375,1.2421875 -0.375,2.25 0,1.0019531 0.123047,1.7519531 0.375,2.25 0.257813,0.49218746 0.638672,0.73828121 1.148438,0.73828121 0.515625,0 0.896484,-0.24609375 1.148437,-0.73828121 0.257813,-0.4980469 0.386719,-1.2480469 0.386719,-2.25 0,-1.0078125 -0.128906,-1.7578125 -0.386719,-2.25 -0.251953,-0.4980469 -0.632812,-0.75 -1.148437,-0.75 z m 0,-0.7851563 c 0.820312,0 1.444336,0.3251953 1.875,0.9726563 0.427734,0.6416015 0.644531,1.5791015 0.644531,2.8125 0,1.227539 -0.216797,2.165039 -0.644531,2.81249996 -0.430664,0.64160157 -1.054688,0.9609375 -1.875,0.9609375 -0.814453,0 -1.438477,-0.31933593 -1.875,-0.9609375 -0.430664,-0.64746096 -0.644531,-1.58496096 -0.644531,-2.81249996 0,-1.2333985 0.213867,-2.1708985 0.644531,-2.8125 0.436523,-0.647461 1.060547,-0.9726563 1.875,-0.9726563 z m 0,0"
       style="fill:#000000;fill-opacity:1;fill-rule:nonzero;stroke:none"
       aria-label="150000"
       transform="matrix(1.3333333,0,0,1.3333333,233.63143,236.79166)" />
    <path
       id="path10"
       d="m 246.508,-163 v -3.5"
       style="fill:none;stroke:#000000;stroke-width:0.8;stroke-linecap:butt;stroke-linejoin:round;stroke-miterlimit:10;stroke-dasharray:none;stroke-opacity:1"
       transform="scale(1.3333333,-1.3333333)" />
    <path
       id="path11"
       d="M 1.9228916,-0.83104969 H 5.3564854 V 9.815625e-4 H 0.72757913 V -0.83104969 C 1.1025791,-1.2119091 1.6123448,-1.7275341 2.2627354,-2.3779247 c 0.6474609,-0.65625 1.0546875,-1.0810547 1.21875,-1.2773437 0.3105469,-0.3515625 0.5302734,-0.647461 0.65625,-0.890625 0.1230469,-0.2490235 0.1875,-0.4921875 0.1875,-0.7265625 0,-0.3896485 -0.1376953,-0.7060547 -0.4101563,-0.9492188 -0.2666015,-0.2402344 -0.618164,-0.3632812 -1.0546875,-0.3632812 -0.3046875,0 -0.6298828,0.055664 -0.9726562,0.1640625 -0.3457031,0.102539 -0.7119141,0.2636718 -1.10156252,0.4804687 v -0.9960937 c 0.38964842,-0.1552735 0.75585942,-0.272461 1.10156252,-0.3515625 0.3515625,-0.084961 0.6679687,-0.1289063 0.9492187,-0.1289063 0.7558594,0 1.359375,0.1933594 1.8046875,0.5742188 0.4511719,0.375 0.6796875,0.8759765 0.6796875,1.5 0,0.3046875 -0.058594,0.5917968 -0.1757812,0.8554687 -0.1113281,0.2666016 -0.3134766,0.5830078 -0.609375,0.9492188 -0.079102,0.09375 -0.3369141,0.3691406 -0.7734375,0.8203125 -0.4394531,0.4453125 -1.0517578,1.0751953 -1.8398438,1.88671871 z M 9.5371494,-6.6318309 c -0.5097656,0 -0.890625,0.2519531 -1.1484375,0.75 -0.2519531,0.4921875 -0.375,1.2421875 -0.375,2.25 0,1.0019531 0.1230469,1.7519531 0.375,2.25 0.2578125,0.49218746 0.6386719,0.73828121 1.1484375,0.73828121 0.5156246,0 0.8964846,-0.24609375 1.1484376,-0.73828121 0.257812,-0.4980469 0.386719,-1.2480469 0.386719,-2.25 0,-1.0078125 -0.128907,-1.7578125 -0.386719,-2.25 -0.251953,-0.4980469 -0.632813,-0.75 -1.1484376,-0.75 z m 0,-0.7851563 c 0.8203126,0 1.4443356,0.3251953 1.8749996,0.9726563 0.427735,0.6416015 0.644532,1.5791015 0.644532,2.8125 0,1.227539 -0.216797,2.165039 -0.644532,2.81249996 -0.430664,0.64160157 -1.054687,0.9609375 -1.8749996,0.9609375 -0.8144531,0 -1.4384765,-0.31933593 -1.875,-0.9609375 C 7.2314854,-1.4667919 7.0176182,-2.4042919 7.0176182,-3.6318309 c 0,-1.2333985 0.2138672,-2.1708985 0.6445312,-2.8125 0.4365235,-0.647461 1.0605469,-0.9726563 1.875,-0.9726563 z m 6.3574216,0.7851563 c -0.509765,0 -0.890625,0.2519531 -1.148437,0.75 -0.251953,0.4921875 -0.375,1.2421875 -0.375,2.25 0,1.0019531 0.123047,1.7519531 0.375,2.25 0.257812,0.49218746 0.638672,0.73828121 1.148437,0.73828121 0.515625,0 0.896485,-0.24609375 1.148438,-0.73828121 0.257812,-0.4980469 0.386719,-1.2480469 0.386719,-2.25 0,-1.0078125 -0.128907,-1.7578125 -0.386719,-2.25 -0.251953,-0.4980469 -0.632813,-0.75 -1.148438,-0.75 z m 0,-0.7851563 c 0.820313,0 1.444336,0.3251953 1.875,0.9726563 0.427735,0.6416015 0.644532,1.5791015 0.644532,2.8125 0,1.227539 -0.216797,2.165039 -0.644532,2.81249996 -0.430664,0.64160157 -1.054687,0.9609375 -1.875,0.9609375 -0.814453,0 -1.438476,-0.31933593 -1.875,-0.9609375 C 13.588907,-1.4667919 13.37504,-2.4042919 13.37504,-3.6318309 c 0,-1.2333985 0.213867,-2.1708985 0.644531,-2.8125 0.436524,-0.647461 1.060547,-0.9726563 1.875,-0.9726563 z m 6.360352,0.7851563 c -0.509766,0 -0.890625,0.2519531 -1.148438,0.75 -0.251953,0.4921875 -0.375,1.2421875 -0.375,2.25 0,1.0019531 0.123047,1.7519531 0.375,2.25 0.257813,0.49218746 0.638672,0.73828121 1.148438,0.73828121 0.515625,0 0.896484,-0.24609375 1.148437,-0.73828121 0.257813,-0.4980469 0.386719,-1.2480469 0.386719,-2.25 0,-1.0078125 -0.128906,-1.7578125 -0.386719,-2.25 -0.251953,-0.4980469 -0.632812,-0.75 -1.148437,-0.75 z m 0,-0.7851563 c 0.820312,0 1.444336,0.3251953 1.875,0.9726563 0.427734,0.6416015 0.644531,1.5791015 0.644531,2.8125 0,1.227539 -0.216797,2.165039 -0.644531,2.81249996 -0.430664,0.64160157 -1.054688,0.9609375 -1.875,0.9609375 -0.814453,0 -1.438477,-0.31933593 -1.875,-0.9609375 -0.430664,-0.64746096 -0.644531,-1.58496096 -0.644531,-2.81249996 0,-1.2333985 0.213867,-2.1708985 0.644531,-2.8125 0.436523,-0.647461 1.060547,-0.9726563 1.875,-0.9726563 z m 6.360351,0.7851563 c -0.509765,0 -0.890625,0.2519531 -1.148437,0.75 -0.251953,0.4921875 -0.375,1.2421875 -0.375,2.25 0,1.0019531 0.123047,1.7519531 0.375,2.25 0.257812,0.49218746 0.638672,0.73828121 1.148437,0.73828121 0.515625,0 0.896485,-0.24609375 1.148438,-0.73828121 0.257812,-0.4980469 0.386719,-1.2480469 0.386719,-2.25 0,-1.0078125 -0.128907,-1.7578125 -0.386719,-2.25 -0.251953,-0.4980469 -0.632813,-0.75 -1.148438,-0.75 z m 0,-0.7851563 c 0.820313,0 1.444336,0.3251953 1.875,0.9726563 0.427735,0.6416015 0.644532,1.5791015 0.644532,2.8125 0,1.227539 -0.216797,2.165039 -0.644532,2.81249996 -0.430664,0.64160157 -1.054687,0.9609375 -1.875,0.9609375 -0.814453,0 -1.438476,-0.31933593 -1.875,-0.9609375 -0.430664,-0.64746096 -0.644531,-1.58496096 -0.644531,-2.81249996 0,-1.2333985 0.213867,-2.1708985 0.644531,-2.8125 0.436524,-0.647461 1.060547,-0.9726563 1.875,-0.9726563 z m 0,0"
       style="fill:#000000;fill-opacity:1;fill-rule:nonzero;stroke:none"
       aria-label="20000"
       transform="matrix(1.3333333,0,0,1.3333333,303.24083,236.79166)" />
    <path
       id="path12"
       d="m 3.175627,-6.6318309 c -0.5097656,0 -0.890625,0.2519531 -1.1484375,0.75 -0.2519531,0.4921875 -0.375,1.2421875 -0.375,2.25 0,1.0019531 0.1230469,1.7519531 0.375,2.25 0.2578125,0.49218746 0.6386719,0.73828121 1.1484375,0.73828121 0.515625,0 0.8964844,-0.24609375 1.1484375,-0.73828121 0.2578125,-0.4980469 0.3867188,-1.2480469 0.3867188,-2.25 0,-1.0078125 -0.1289063,-1.7578125 -0.3867188,-2.25 -0.2519531,-0.4980469 -0.6328125,-0.75 -1.1484375,-0.75 z m 0,-0.7851563 c 0.8203125,0 1.4443359,0.3251953 1.875,0.9726563 0.4277344,0.6416015 0.6445313,1.5791015 0.6445313,2.8125 0,1.227539 -0.2167969,2.165039 -0.6445313,2.81249996 -0.4306641,0.64160157 -1.0546875,0.9609375 -1.875,0.9609375 -0.8144531,0 -1.4384766,-0.31933593 -1.875,-0.9609375 C 0.86996294,-1.4667919 0.65609575,-2.4042919 0.65609575,-3.6318309 c 0,-1.2333985 0.21386719,-2.1708985 0.64453125,-2.8125 0.4365234,-0.647461 1.0605469,-0.9726563 1.875,-0.9726563 z m 0,0"
       style="fill:#000000;fill-opacity:1;fill-rule:nonzero;stroke:none"
       aria-label="0"
       transform="matrix(1.3333333,0,0,1.3333333,345.64083,236.79166)"
       clip-path="url(#clipPath13)" />
    <path
       id="path14"
       d="M 0.93846469,-5.4619081 H 1.8408084 V -9.705625e-4 H 0.93846469 Z m 0,-2.1328125 H 1.8408084 v 1.1367188 H 0.93846469 Z m 0,0"
       style="fill:#000000;fill-opacity:1;fill-rule:nonzero;stroke:none"
       aria-label="i"
       transform="matrix(1.3333333,0,0,1.3333333,161.00262,255.02083)"
       clip-path="url(#clipPath15)" />
    <path
       id="path16"
       d="m 1.8293631,-7.0205018 v 1.5585937 h 1.8515625 v 0.6914063 H 1.8293631 v 2.9648437 c 0,0.4453125 0.058594,0.7353516 0.1757813,0.86718754 0.1230468,0.12597656 0.375,0.1875 0.75,0.1875 H 3.6809256 V -9.705625e-4 H 2.7551444 c -0.6884766,0 -1.1660157,-0.1289062475 -1.4296875,-0.3867187475 C 1.0588553,-0.64550181 0.92701937,-1.1171815 0.92701937,-1.8056581 v -2.9648437 h -0.65625 v -0.6914063 h 0.65625 v -1.5585937 z m 0,0"
       style="fill:#000000;fill-opacity:1;fill-rule:nonzero;stroke:none"
       aria-label="t"
       transform="matrix(1.3333333,0,0,1.3333333,164.70929,255.02083)"
       clip-path="url(#clipPath17)" />
    <path
       id="path18"
       d="m 5.6144412,-2.9540956 v 0.4335938 h -4.125 c 0.038086,0.6181641 0.2226563,1.0898437 0.5507813,1.4179687 0.3339844,0.32226566 0.8027344,0.48046879 1.40625,0.48046879 0.3427734,0 0.6738281,-0.0410156 0.9960937,-0.12890625 0.328125,-0.0849609 0.647461,-0.2109375 0.9609375,-0.37500004 v 0.84375004 c -0.3222656,0.140625 -0.6503906,0.24609375 -0.984375,0.31640625 -0.336914,0.0703125 -0.6796875,0.10546875 -1.03125,0.10546875 -0.8759765,0 -1.5673828,-0.25195313 -2.0742187,-0.76171875 C 0.80389437,-1.1289002 0.55194125,-1.8173768 0.55194125,-2.6845643 c 0,-0.890625 0.24023437,-1.5966797 0.72656245,-2.1210938 0.4833985,-0.5302734 1.1367188,-0.796875 1.9570313,-0.796875 0.7324219,0 1.3125,0.2402344 1.734375,0.7148438 0.4277344,0.46875 0.6445312,1.1132812 0.6445312,1.9335937 z m -0.890625,-0.2695312 c -0.00879,-0.4921875 -0.149414,-0.8818359 -0.421875,-1.171875 -0.2666015,-0.2958984 -0.618164,-0.4453125 -1.0546875,-0.4453125 -0.5097656,0 -0.9140625,0.1464844 -1.21875,0.4335937 -0.2988281,0.28125 -0.4658203,0.6796875 -0.5039062,1.1953125 z m 0,0"
       style="fill:#000000;fill-opacity:1;fill-rule:nonzero;stroke:none"
       aria-label="e"
       transform="matrix(1.3333333,0,0,1.3333333,169.93595,255.02083)"
       clip-path="url(#clipPath19)" />
    <path
       id="path20"
       d="m 4.1138553,-4.6298768 c -0.102539,-0.052734 -0.2167969,-0.09375 -0.3398437,-0.1171875 -0.1171875,-0.029297 -0.2460938,-0.046875 -0.3867188,-0.046875 -0.5097656,0 -0.899414,0.1640625 -1.171875,0.4921875 -0.2666015,0.328125 -0.3984375,0.8027344 -0.3984375,1.4179687 V -9.705625e-4 H 0.90291781 V -5.4619081 H 1.8169803 v 0.84375 c 0.1875,-0.328125 0.4277344,-0.5742187 0.7265625,-0.7382812 0.3046875,-0.1640625 0.6738281,-0.2460938 1.1132813,-0.2460938 0.052734,0 0.1201172,0.00586 0.1992187,0.011719 0.076172,0.00879 0.1582031,0.020508 0.2460938,0.035156 z m 0,0"
       style="fill:#000000;fill-opacity:1;fill-rule:nonzero;stroke:none"
       aria-label="r"
       transform="matrix(1.3333333,0,0,1.3333333,178.13595,255.02083)"
       clip-path="url(#clipPath21)" />
    <path
       id="path22"
       d="m 3.4228016,-2.7431581 c -0.7207031,0 -1.21875,0.082031 -1.5,0.2460938 -0.28125,0.1640625 -0.421875,0.4453125 -0.421875,0.84375 0,0.3222656 0.1054688,0.5742187 0.3164063,0.76171874 0.2109375,0.1875 0.4951172,0.28125 0.8554687,0.28125 0.4980469,0 0.8964844,-0.17578125 1.1953125,-0.52734374 0.3046875,-0.3515625 0.4570313,-0.8203125 0.4570313,-1.40625 v -0.1992188 z m 1.7929688,-0.375 V -9.705625e-4 H 4.3251454 V -0.83300181 c -0.2109375,0.33691406 -0.46875,0.58300781 -0.7734375,0.73828125 -0.3046875,0.15527344 -0.6796875,0.234375 -1.125,0.234375 -0.5566406,0 -1.0019531,-0.15527344 -1.3359375,-0.46875 C 0.76264538,-0.63964244 0.59858288,-1.0615174 0.59858288,-1.5947206 c 0,-0.609375 0.20507812,-1.0693359 0.62109372,-1.3828125 0.413086,-0.3105468 1.0253907,-0.46875 1.8398438,-0.46875 h 1.265625 v -0.09375 c 0,-0.4130859 -0.1376953,-0.7324218 -0.4101563,-0.9609375 -0.2753906,-0.2255859 -0.65625,-0.3398437 -1.1484375,-0.3398437 -0.3134765,0 -0.618164,0.041016 -0.9140625,0.1171875 -0.2988281,0.070312 -0.5830078,0.1845703 -0.85546872,0.3398437 v -0.8320312 c 0.32812502,-0.1230469 0.64746092,-0.2167969 0.96093752,-0.28125 0.3105469,-0.070312 0.6123047,-0.1054688 0.9023437,-0.1054688 0.788086,0 1.3769532,0.2080079 1.7695313,0.6210938 0.3896484,0.4072266 0.5859375,1.0283203 0.5859375,1.8632812 z m 0,0"
       style="fill:#000000;fill-opacity:1;fill-rule:nonzero;stroke:none"
       aria-label="a"
       transform="matrix(1.3333333,0,0,1.3333333,183.61595,255.02083)"
       clip-path="url(#clipPath23)" />
    <path
       id="path24"
       d="m 1.8279569,-7.0205018 v 1.5585937 h 1.8515625 v 0.6914063 H 1.8279569 v 2.9648437 c 0,0.4453125 0.058594,0.7353516 0.1757812,0.86718754 0.1230469,0.12597656 0.375,0.1875 0.75,0.1875 H 3.6795194 V -9.705625e-4 H 2.7537381 c -0.6884765,0 -1.1660156,-0.1289062475 -1.4296875,-0.3867187475 C 1.0574491,-0.64550181 0.92561313,-1.1171815 0.92561313,-1.8056581 v -2.9648437 h -0.65625 v -0.6914063 h 0.65625 v -1.5585937 z m 0,0"
       style="fill:#000000;fill-opacity:1;fill-rule:nonzero;stroke:none"
       aria-label="t"
       transform="matrix(1.3333333,0,0,1.3333333,191.78929,255.02083)"
       clip-path="url(#clipPath25)" />
    <path
       id="path26"
       d="M 0.93725375,-5.4619081 H 1.8395975 V -9.705625e-4 H 0.93725375 Z m 0,-2.1328125 H 1.8395975 v 1.1367188 H 0.93725375 Z m 0,0"
       style="fill:#000000;fill-opacity:1;fill-rule:nonzero;stroke:none"
       aria-label="i"
       transform="matrix(1.3333333,0,0,1.3333333,197.01595,255.02083)"
       clip-path="url(#clipPath27)" />
    <path
       id="path28"
       d="m 3.0586199,-4.8408143 c -0.477539,0 -0.8554687,0.1875 -1.1367187,0.5625 -0.28125,0.375 -0.421875,0.890625 -0.421875,1.546875 0,0.65625 0.1347656,1.171875 0.4101562,1.546875 0.28125,0.37499999 0.6621094,0.56249999 1.1484375,0.56249999 0.4746094,0 0.8554688,-0.1875 1.1367188,-0.56249999 0.28125,-0.3808594 0.421875,-0.8964844 0.421875,-1.546875 0,-0.6474609 -0.140625,-1.1601563 -0.421875,-1.5351563 -0.28125,-0.3808593 -0.6621094,-0.5742187 -1.1367188,-0.5742187 z m 0,-0.7617188 c 0.7792969,0 1.3945313,0.2548829 1.8398438,0.7617188 0.4453125,0.5097656 0.6679687,1.2128906 0.6679687,2.109375 0,0.8994141 -0.2226562,1.6025391 -0.6679687,2.10937499 -0.4453125,0.50976562 -1.0605469,0.76171875 -1.8398438,0.76171875 -0.7822265,0 -1.3945312,-0.25195313 -1.8398437,-0.76171875 C 0.77346369,-1.1289002 0.55080744,-1.8320252 0.55080744,-2.7314393 c 0,-0.8964844 0.22265625,-1.5996094 0.66796876,-2.109375 0.4453125,-0.5068359 1.0576172,-0.7617188 1.8398437,-0.7617188 z m 0,0"
       style="fill:#000000;fill-opacity:1;fill-rule:nonzero;stroke:none"
       aria-label="o"
       transform="matrix(1.3333333,0,0,1.3333333,200.72262,255.02083)"
       clip-path="url(#clipPath29)" />
    <path
       id="path30"
       d="M 5.4845194,-3.3056581 V -9.705625e-4 H 4.5938944 V -3.2705018 c 0,-0.515625 -0.1025391,-0.9023438 -0.3046875,-1.1601563 -0.2050781,-0.2578125 -0.5097656,-0.3867187 -0.9140625,-0.3867187 -0.4863281,0 -0.8671875,0.1582031 -1.1484375,0.46875 -0.2753906,0.3046875 -0.4101563,0.7236328 -0.4101563,1.2539062 V -9.705625e-4 H 0.90248813 V -5.4619081 H 1.8165506 v 0.84375 c 0.2109375,-0.328125 0.459961,-0.5742187 0.75,-0.7382812 0.2958985,-0.1640625 0.6328125,-0.2460938 1.0078125,-0.2460938 0.6328125,0 1.1074219,0.1962891 1.4296875,0.5859375 0.319336,0.3925782 0.4804688,0.9609375 0.4804688,1.7109375 z m 0,0"
       style="fill:#000000;fill-opacity:1;fill-rule:nonzero;stroke:none"
       aria-label="n"
       transform="matrix(1.3333333,0,0,1.3333333,208.88262,255.02083)"
       clip-path="url(#clipPath31)" />
    <path
       id="path32"
       d="m 27.316,-147.684 h -3.5"
       style="fill:none;stroke:#000000;stroke-width:0.8;stroke-linecap:butt;stroke-linejoin:round;stroke-miterlimit:10;stroke-dasharray:none;stroke-opacity:1"
       transform="scale(1.3333333,-1.3333333)" />
    <path
       id="path33"
       d="M 1.9218752,-0.83217906 H 5.355469 V -1.478125e-4 H 0.72656275 V -0.83217906 C 1.1015627,-1.2130384 1.6113284,-1.7286634 2.261719,-2.3790541 c 0.6474609,-0.65625 1.0546875,-1.0810546 1.21875,-1.2773437 0.3105469,-0.3515625 0.5302734,-0.6474609 0.65625,-0.890625 0.1230469,-0.2490234 0.1875,-0.4921875 0.1875,-0.7265625 0,-0.3896484 -0.1376953,-0.7060547 -0.4101563,-0.9492188 -0.2666015,-0.2402343 -0.618164,-0.3632812 -1.0546875,-0.3632812 -0.3046875,0 -0.6298828,0.055664 -0.9726562,0.1640625 -0.3457031,0.1025391 -0.7119141,0.2636719 -1.1015625,0.4804687 v -0.9960937 c 0.3896484,-0.1552734 0.7558594,-0.2724609 1.1015625,-0.3515625 0.3515625,-0.084961 0.6679687,-0.1289063 0.9492187,-0.1289063 0.7558594,0 1.359375,0.1933594 1.8046875,0.5742188 0.4511719,0.375 0.6796875,0.8759766 0.6796875,1.5 0,0.3046875 -0.058594,0.5917969 -0.1757812,0.8554687 -0.1113281,0.2666016 -0.3134766,0.5830079 -0.609375,0.9492188 -0.079102,0.09375 -0.3369141,0.3691406 -0.7734375,0.8203125 -0.4394531,0.4453125 -1.0517578,1.0751953 -1.8398438,1.88671874 z m 0,0"
       style="fill:#000000;fill-opacity:1;fill-rule:nonzero;stroke:none"
       aria-label="2"
       transform="matrix(1.3333333,0,0,1.3333333,18.609375,201.97285)" />
    <path
       id="path34"
       d="m 27.316,-121.172 h -3.5"
       style="fill:none;stroke:#000000;stroke-width:0.8;stroke-linecap:butt;stroke-linejoin:round;stroke-miterlimit:10;stroke-dasharray:none;stroke-opacity:1"
       transform="scale(1.3333333,-1.3333333)" />
    <path
       id="path35"
       d="m 4.0546877,-3.9264303 c 0.4746094,0.1025391 0.84375,0.3134766 1.1015625,0.6328125 0.2636719,0.3134766 0.3984375,0.703125 0.3984375,1.171875 0,0.7207032 -0.2460937,1.2773438 -0.7382812,1.6757813 C 4.324219,-0.05338338 3.621094,0.139976 2.7070315,0.139976 2.402344,0.139976 2.0859377,0.10774944 1.7578127,0.046226 1.4355471,-0.00650838 1.1044924,-0.09732869 0.761719,-0.22330525 V -1.172524 c 0.2724609,0.1582031 0.5683594,0.27832031 0.890625,0.36328125 0.328125,0.0791016 0.6708984,0.1171875 1.03125,0.1171875 0.6152344,0 1.0839844,-0.12011719 1.40625,-0.36328125 0.328125,-0.2402344 0.4921875,-0.5976563 0.4921875,-1.0664063 0,-0.4277343 -0.1523438,-0.7646484 -0.4570313,-1.0078125 C 3.8261721,-3.3697896 3.4101565,-3.4928365 2.871094,-3.4928365 H 2.0156252 v -0.8085938 h 0.890625 c 0.4833985,0 0.8554688,-0.09668 1.1132813,-0.2929687 0.2578125,-0.1933594 0.3867187,-0.4716797 0.3867187,-0.8320313 0,-0.375 -0.1347656,-0.6591796 -0.3984375,-0.8554687 -0.2666015,-0.2021484 -0.6445312,-0.3046875 -1.1367187,-0.3046875 -0.2753906,0 -0.5683594,0.032227 -0.8789063,0.09375 -0.3046875,0.055664 -0.6416015,0.1464844 -1.00781245,0.2695312 v -0.8789062 c 0.37499995,-0.1083984 0.72070315,-0.1875 1.04296875,-0.234375 0.328125,-0.052734 0.6357422,-0.082031 0.9257812,-0.082031 0.75,0 1.3417969,0.1728516 1.78125,0.515625 0.4365235,0.3369141 0.65625,0.7939454 0.65625,1.3710938 0,0.4072266 -0.1171875,0.75 -0.3515625,1.03125 -0.2285156,0.2753906 -0.5566406,0.4658203 -0.984375,0.5742184 z m 0,0"
       style="fill:#000000;fill-opacity:1;fill-rule:nonzero;stroke:none"
       aria-label="3"
       transform="matrix(1.3333333,0,0,1.3333333,18.609375,166.62587)" />
    <path
       id="path36"
       d="m 27.316,-94.664 h -3.5"
       style="fill:none;stroke:#000000;stroke-width:0.8;stroke-linecap:butt;stroke-linejoin:round;stroke-miterlimit:10;stroke-dasharray:none;stroke-opacity:1"
       transform="scale(1.3333333,-1.3333333)" />
    <path
       id="path37"
       d="m 3.7734377,-6.4347439 -2.484375,3.890625 h 2.484375 z M 3.5156252,-7.2902127 h 1.2421875 v 4.7460938 h 1.0429688 v 0.8203125 H 4.7578127 v 1.72265621 H 3.7734377 V -1.7238064 H 0.49218775 v -0.9492188 z m 0,0"
       style="fill:#000000;fill-opacity:1;fill-rule:nonzero;stroke:none"
       aria-label="4"
       transform="matrix(1.3333333,0,0,1.3333333,18.609375,131.27888)" />
    <path
       id="path38"
       d="m 27.316,-68.152 h -3.5"
       style="fill:none;stroke:#000000;stroke-width:0.8;stroke-linecap:butt;stroke-linejoin:round;stroke-miterlimit:10;stroke-dasharray:none;stroke-opacity:1"
       transform="scale(1.3333333,-1.3333333)" />
    <path
       id="path39"
       d="m 1.0781252,-7.2877872 h 3.8671875 v 0.8320313 H 1.980469 v 1.78125 c 0.140625,-0.046875 0.28125,-0.082031 0.421875,-0.1054688 0.1464844,-0.023437 0.2929687,-0.035156 0.4335937,-0.035156 0.8203125,0 1.4648438,0.2226562 1.9335938,0.6679687 0.4746094,0.4453125 0.7148437,1.0488281 0.7148437,1.8046875 0,0.7910156 -0.2460937,1.40332032 -0.7382812,1.83984376 -0.4863281,0.43066406 -1.171875,0.64453125 -2.0625,0.64453125 -0.3046875,0 -0.6181641,-0.0292969 -0.9375,-0.08203125 -0.3134766,-0.046875 -0.6386719,-0.12304687 -0.97265625,-0.234375 V -1.1588809 c 0.28710935,0.1582031 0.58886715,0.27539059 0.90234375,0.35156246 0.3105469,0.0791016 0.6445312,0.1171875 0.9960937,0.1171875 0.5625,0 1.0078125,-0.14648437 1.3359375,-0.44531246 0.328125,-0.2958985 0.4921875,-0.6972657 0.4921875,-1.2070313 0,-0.4980469 -0.1640625,-0.8964844 -0.4921875,-1.1953125 -0.328125,-0.2958984 -0.7734375,-0.4453125 -1.3359375,-0.4453125 -0.2666015,0 -0.5332031,0.032227 -0.796875,0.09375 -0.2578125,0.055664 -0.524414,0.1464844 -0.796875,0.2695313 z m 0,0"
       style="fill:#000000;fill-opacity:1;fill-rule:nonzero;stroke:none"
       aria-label="5"
       transform="matrix(1.3333333,0,0,1.3333333,18.609375,95.931893)" />
    <path
       id="path40"
       d="m 27.316,-41.641 h -3.5"
       style="fill:none;stroke:#000000;stroke-width:0.8;stroke-linecap:butt;stroke-linejoin:round;stroke-miterlimit:10;stroke-dasharray:none;stroke-opacity:1"
       transform="scale(1.3333333,-1.3333333)" />
    <path
       id="path41"
       d="m 3.3046877,-4.0304779 c -0.4453125,0 -0.796875,0.1523438 -1.0546875,0.4570313 -0.2578125,0.2988281 -0.3867187,0.7089844 -0.3867187,1.2304687 0,0.5332032 0.1289062,0.9492188 0.3867187,1.2539063 0.2578125,0.2988281 0.609375,0.44531248 1.0546875,0.44531248 0.4365235,0 0.7851563,-0.14648438 1.0429688,-0.44531248 0.2578125,-0.3046875 0.3867187,-0.7207031 0.3867187,-1.2539063 0,-0.5214843 -0.1289062,-0.9316406 -0.3867187,-1.2304687 C 4.089844,-3.8781341 3.7412112,-4.0304779 3.3046877,-4.0304779 Z m 1.9570313,-3.09375 v 0.9023438 C 5.0097659,-6.3390716 4.7578127,-6.4269622 4.5000002,-6.4914154 c -0.2519531,-0.061523 -0.4980468,-0.09375 -0.7382812,-0.09375 -0.65625,0 -1.1572266,0.2197266 -1.5,0.65625 -0.3369141,0.4394532 -0.5332031,1.1015625 -0.5859375,1.9921875 0.1933594,-0.28125 0.4365234,-0.4951172 0.7265625,-0.6445312 0.2871094,-0.1552735 0.609375,-0.234375 0.9609375,-0.234375 0.7265625,0 1.3007812,0.2226562 1.7226562,0.6679687 0.4277344,0.4453125 0.6445313,1.0488282 0.6445313,1.8046875 0,0.75 -0.2226563,1.35351565 -0.6679688,1.80468753 -0.4394531,0.45410156 -1.0253906,0.6796875 -1.7578125,0.6796875 -0.84375,0 -1.4882812,-0.31933594 -1.9335937,-0.9609375 C 0.9257815,-1.4670013 0.70312525,-2.4045013 0.70312525,-3.6320404 c 0,-1.1542968 0.27246094,-2.0742187 0.82031245,-2.7539062 0.5449219,-0.6855469 1.2773438,-1.03125 2.1914063,-1.03125 0.2490234,0 0.4980469,0.023437 0.75,0.070312 0.2578125,0.046875 0.5214844,0.1230469 0.796875,0.2226567 z m 0,0"
       style="fill:#000000;fill-opacity:1;fill-rule:nonzero;stroke:none"
       aria-label="6"
       transform="matrix(1.3333333,0,0,1.3333333,18.609375,60.584908)" />
    <path
       id="path42"
       d="m 27.316,-15.133 h -3.5"
       style="fill:none;stroke:#000000;stroke-width:0.8;stroke-linecap:butt;stroke-linejoin:round;stroke-miterlimit:10;stroke-dasharray:none;stroke-opacity:1"
       transform="scale(1.3333333,-1.3333333)" />
    <path
       id="path43"
       d="M 0.82031275,-7.2887836 H 5.5078127 v 0.421875 L 2.8593752,2.789375e-4 h -1.03125 L 4.324219,-6.4567523 H 0.82031275 Z m 0,0"
       style="fill:#000000;fill-opacity:1;fill-rule:nonzero;stroke:none"
       aria-label="7"
       transform="matrix(1.3333333,0,0,1.3333333,18.609375,25.237909)" />
    <path
       id="path44"
       d="M 0.93730069,-7.5947263 H 1.8396444 V -9.763125e-4 H 0.93730069 Z m 4.89257811,2.7539062 c -0.4775391,0 -0.8554687,0.1875 -1.1367187,0.5625 -0.28125,0.375 -0.421875,0.890625 -0.421875,1.546875 0,0.65625 0.1347656,1.171875 0.4101562,1.546875 0.28125,0.37500004 0.6621094,0.56250004 1.1484375,0.56250004 0.4746094,0 0.8554688,-0.1875 1.1367188,-0.56250004 0.28125,-0.3808593 0.421875,-0.8964843 0.421875,-1.546875 0,-0.6474609 -0.140625,-1.1601562 -0.421875,-1.5351562 -0.28125,-0.3808594 -0.6621094,-0.5742188 -1.1367188,-0.5742188 z m 0,-0.7617187 c 0.7792969,0 1.3945313,0.2548828 1.8398438,0.7617187 0.4453125,0.5097657 0.6679687,1.2128907 0.6679687,2.109375 0,0.8994141 -0.2226562,1.6025391 -0.6679687,2.10937504 -0.4453125,0.50976562 -1.0605469,0.76171875 -1.8398438,0.76171875 -0.7822266,0 -1.3945312,-0.25195313 -1.8398437,-0.76171875 C 3.5447226,-1.128906 3.3220663,-1.832031 3.3220663,-2.7314451 c 0,-0.8964843 0.2226563,-1.5996093 0.6679688,-2.109375 0.4453125,-0.5068359 1.0576171,-0.7617187 1.8398437,-0.7617187 z m 7.5849612,2.8007812 c 0,-0.6474609 -0.134766,-1.1513671 -0.398438,-1.5117187 -0.266601,-0.3574219 -0.641601,-0.5390625 -1.125,-0.5390625 -0.486328,0 -0.864258,0.1816406 -1.136719,0.5390625 -0.266601,0.3603516 -0.398437,0.8642578 -0.398437,1.5117187 0,0.6503907 0.131836,1.1542969 0.398437,1.5117188 0.272461,0.36035155 0.650391,0.53906249 1.136719,0.53906249 0.483399,0 0.858399,-0.17871094 1.125,-0.53906249 0.263672,-0.3574219 0.398438,-0.8613281 0.398438,-1.5117188 z m 0.902343,2.12109379 c 0,0.92871094 -0.208007,1.62011719 -0.621093,2.07421871 -0.416016,0.4511719 -1.048828,0.6796875 -1.898438,0.6796875 -0.313476,0 -0.609375,-0.023437 -0.890625,-0.070312 -0.28125,-0.046875 -0.55664,-0.1171875 -0.820312,-0.2109375 V 0.91308619 c 0.263672,0.14648441 0.527343,0.25195311 0.785156,0.31640621 0.257812,0.070312 0.518555,0.1054688 0.785156,0.1054688 0.585938,0 1.022461,-0.1582031 1.3125,-0.46875001 0.295899,-0.3046875 0.445313,-0.76757813 0.445313,-1.3828125 v -0.4453125 c -0.181641,0.32226562 -0.418946,0.5625 -0.714844,0.7265625 -0.290039,0.15820312 -0.632813,0.2343749975 -1.03125,0.2343749975 -0.673828,0 -1.21582,-0.2519531275 -1.628906,-0.7617187475 C 9.6326132,-1.2783201 9.4304647,-1.9580076 9.4304647,-2.8017576 c 0,-0.84375 0.2021485,-1.5175781 0.6093753,-2.0273437 0.413086,-0.515625 0.955078,-0.7734375 1.628906,-0.7734375 0.398437,0 0.741211,0.082031 1.03125,0.2460937 0.295898,0.1582032 0.533203,0.3955079 0.714844,0.7148438 v -0.8203125 h 0.902343 z m 3.996094,-6.90234379 c -0.430664,0.75 -0.75,1.4941407 -0.960937,2.2265625 -0.210938,0.7265625 -0.316407,1.4648438 -0.316407,2.2148438 0,0.75 0.105469,1.4970703 0.316407,2.23828124 0.210937,0.73535156 0.530273,1.47070312 0.960937,2.21484376 H 17.53984 C 17.047652,0.55273463 16.678512,-0.19433569 16.438277,-0.93847631 16.195113,-1.6796872 16.074996,-2.4150388 16.074996,-3.1416013 c 0,-0.7265625 0.120117,-1.4560547 0.363281,-2.1914063 0.240235,-0.7324218 0.609375,-1.4824218 1.101563,-2.25 z m 6.290039,4.2773438 V -9.763125e-4 H 23.712691 V -3.2705076 c 0,-0.515625 -0.102539,-0.9023437 -0.304687,-1.1601562 -0.205078,-0.2578125 -0.509766,-0.3867188 -0.914063,-0.3867188 -0.486328,0 -0.867187,0.1582032 -1.148437,0.46875 -0.275391,0.3046875 -0.410156,0.7236329 -0.410156,1.2539063 V -9.763125e-4 H 20.021285 V -5.4619138 h 0.914063 v 0.84375 c 0.210937,-0.328125 0.45996,-0.5742188 0.75,-0.7382813 0.295898,-0.1640625 0.632812,-0.2460937 1.007812,-0.2460937 0.632813,0 1.107422,0.1962891 1.429688,0.5859375 0.319335,0.3925781 0.480468,0.9609375 0.480468,1.7109375 z m 6.459961,0.3515625 v 0.4335937 h -4.125 c 0.03809,0.6181641 0.222656,1.0898438 0.550781,1.4179688 0.333985,0.32226561 0.802735,0.48046874 1.40625,0.48046874 0.342774,0 0.673829,-0.0410156 0.996094,-0.12890625 0.328125,-0.0849609 0.647461,-0.2109375 0.960938,-0.37499999 v 0.84374999 c -0.322266,0.140625 -0.650391,0.24609375 -0.984375,0.31640625 -0.336914,0.0703125 -0.679688,0.10546875 -1.03125,0.10546875 -0.875977,0 -1.567383,-0.25195313 -2.074219,-0.76171875 C 26.25273,-1.128906 26.000777,-1.8173826 26.000777,-2.6845701 c 0,-0.890625 0.240235,-1.5966796 0.726563,-2.1210937 0.483398,-0.5302734 1.136718,-0.796875 1.957031,-0.796875 0.732422,0 1.3125,0.2402344 1.734375,0.7148437 0.427734,0.46875 0.644531,1.1132813 0.644531,1.9335938 z m -0.890625,-0.2695313 c -0.0088,-0.4921875 -0.149414,-0.8818359 -0.421875,-1.171875 -0.266601,-0.2958984 -0.618164,-0.4453125 -1.054687,-0.4453125 -0.509766,0 -0.914063,0.1464844 -1.21875,0.4335938 -0.298828,0.28125 -0.465821,0.6796875 -0.503907,1.1953125 z m 5.961914,0.421875 c 0,-0.6474609 -0.134765,-1.1513671 -0.398437,-1.5117187 -0.266602,-0.3574219 -0.641602,-0.5390625 -1.125,-0.5390625 -0.486328,0 -0.864258,0.1816406 -1.136719,0.5390625 -0.266602,0.3603516 -0.398437,0.8642578 -0.398437,1.5117187 0,0.6503907 0.131835,1.1542969 0.398437,1.5117188 0.272461,0.36035155 0.650391,0.53906249 1.136719,0.53906249 0.483398,0 0.858398,-0.17871094 1.125,-0.53906249 0.263672,-0.3574219 0.398437,-0.8613281 0.398437,-1.5117188 z m 0.902344,2.12109379 c 0,0.92871094 -0.208008,1.62011719 -0.621094,2.07421871 -0.416015,0.4511719 -1.048828,0.6796875 -1.898437,0.6796875 -0.313477,0 -0.609375,-0.023437 -0.890625,-0.070312 -0.28125,-0.046875 -0.556641,-0.1171875 -0.820313,-0.2109375 V 0.91308619 c 0.263672,0.14648441 0.527344,0.25195311 0.785157,0.31640621 0.257812,0.070312 0.518554,0.1054688 0.785156,0.1054688 0.585937,0 1.022461,-0.1582031 1.3125,-0.46875001 0.295898,-0.3046875 0.445312,-0.76757813 0.445312,-1.3828125 v -0.4453125 c -0.18164,0.32226562 -0.418945,0.5625 -0.714843,0.7265625 -0.29004,0.15820312 -0.632813,0.2343749975 -1.03125,0.2343749975 -0.673829,0 -1.215821,-0.2519531275 -1.628907,-0.7617187475 -0.407226,-0.51562504 -0.609375,-1.19531254 -0.609375,-2.03906254 0,-0.84375 0.202149,-1.5175781 0.609375,-2.0273437 0.413086,-0.515625 0.955078,-0.7734375 1.628907,-0.7734375 0.398437,0 0.74121,0.082031 1.03125,0.2460937 0.295898,0.1582032 0.533203,0.3955079 0.714843,0.7148438 v -0.8203125 h 0.902344 z m 6,2.34375001 V 2.3544924 H 37.845504 V 1.6630862 Z m 1.719727,-2.48437501 V 2.0732424 h -0.914063 v -7.5351562 h 0.914063 v 0.8203125 c 0.1875,-0.3193359 0.421875,-0.5566406 0.703125,-0.7148438 0.287109,-0.1640625 0.635742,-0.2460937 1.042968,-0.2460937 0.66211,0 1.201172,0.2666016 1.617188,0.796875 0.413086,0.5244141 0.621094,1.2158203 0.621094,2.0742187 0,0.8613282 -0.208008,1.5556641 -0.621094,2.08593754 -0.416016,0.52441406 -0.955078,0.78515625 -1.617188,0.78515625 -0.407226,0 -0.755859,-0.07910156 -1.042968,-0.234375 -0.28125,-0.15527344 -0.515625,-0.3984375 -0.703125,-0.7265625 z m 3.046875,-1.91015629 c 0,-0.65625 -0.137696,-1.171875 -0.410157,-1.546875 -0.266601,-0.3808593 -0.638672,-0.5742187 -1.113281,-0.5742187 -0.477539,0 -0.852539,0.1933594 -1.125,0.5742187 -0.266601,0.375 -0.398437,0.890625 -0.398437,1.546875 0,0.6650391 0.131836,1.1835938 0.398437,1.5585938 0.272461,0.37499999 0.647461,0.56249999 1.125,0.56249999 0.474609,0 0.84668,-0.1875 1.113281,-0.56249999 0.272461,-0.375 0.410157,-0.8935547 0.410157,-1.5585938 z m 4.535156,-2.109375 c -0.477539,0 -0.855469,0.1875 -1.136719,0.5625 -0.28125,0.375 -0.421875,0.890625 -0.421875,1.546875 0,0.65625 0.134766,1.171875 0.410156,1.546875 0.28125,0.37500004 0.66211,0.56250004 1.148438,0.56250004 0.474609,0 0.855469,-0.1875 1.136719,-0.56250004 0.28125,-0.3808593 0.421875,-0.8964843 0.421875,-1.546875 0,-0.6474609 -0.140625,-1.1601562 -0.421875,-1.5351562 -0.28125,-0.3808594 -0.66211,-0.5742188 -1.136719,-0.5742188 z m 0,-0.7617187 c 0.779297,0 1.394531,0.2548828 1.839844,0.7617187 0.445312,0.5097657 0.667968,1.2128907 0.667968,2.109375 0,0.8994141 -0.222656,1.6025391 -0.667968,2.10937504 -0.445313,0.50976562 -1.060547,0.76171875 -1.839844,0.76171875 -0.782227,0 -1.394531,-0.25195313 -1.839844,-0.76171875 C 50.053512,-1.128906 49.830855,-1.832031 49.830855,-2.7314451 c 0,-0.8964843 0.222657,-1.5996093 0.667969,-2.109375 0.445313,-0.5068359 1.057617,-0.7617187 1.839844,-0.7617187 z m 3.990234,0.140625 h 0.902344 v 5.4609374875 h -0.902344 z m 0,-2.1328125 h 0.902344 v 1.1367187 h -0.902344 z m 7.31543,4.2890625 V -9.763125e-4 H 62.753707 V -3.2705076 c 0,-0.515625 -0.102539,-0.9023437 -0.304688,-1.1601562 -0.205078,-0.2578125 -0.509765,-0.3867188 -0.914062,-0.3867188 -0.486328,0 -0.867188,0.1582032 -1.148438,0.46875 -0.27539,0.3046875 -0.410156,0.7236329 -0.410156,1.2539063 V -9.763125e-4 H 59.062301 V -5.4619138 h 0.914062 v 0.84375 c 0.210938,-0.328125 0.459961,-0.5742188 0.75,-0.7382813 0.295899,-0.1640625 0.632813,-0.2460937 1.007813,-0.2460937 0.632812,0 1.107422,0.1962891 1.429687,0.5859375 0.319336,0.3925781 0.480469,0.9609375 0.480469,1.7109375 z m 2.674805,-3.7148438 v 1.5585938 h 1.851562 v 0.6914062 h -1.851562 v 2.9648438 c 0,0.4453125 0.05859,0.7353516 0.175781,0.86718749 0.123047,0.12597656 0.375,0.1875 0.75,0.1875 h 0.925781 v 0.7499999975 h -0.925781 c -0.688477,0 -1.166016,-0.1289062475 -1.429688,-0.3867187475 -0.266601,-0.2578125 -0.398437,-0.72949214 -0.398437,-1.41796874 v -2.9648438 h -0.65625 v -0.6914062 h 0.65625 v -1.5585938 z m 6.521484,1.7109375 v 0.8554688 c -0.257813,-0.1318359 -0.524414,-0.2285156 -0.796875,-0.2929688 -0.275391,-0.070312 -0.556641,-0.1054687 -0.84375,-0.1054687 -0.445313,0 -0.782227,0.070312 -1.007813,0.2109375 -0.219726,0.1347656 -0.328125,0.3369141 -0.328125,0.609375 0,0.2109375 0.07617,0.375 0.234375,0.4921875 0.164063,0.1171875 0.483399,0.2314453 0.960938,0.3398437 l 0.304687,0.070312 c 0.638672,0.140625 1.092774,0.3369141 1.359375,0.5859375 0.272461,0.2431641 0.410157,0.5859375 0.410157,1.03125 0,0.5097657 -0.205078,0.91113285 -0.609375,1.20703129 -0.398438,0.29882812 -0.949219,0.4453125 -1.652344,0.4453125 -0.298828,0 -0.606445,-0.0292969 -0.925781,-0.08203125 -0.313477,-0.05566406 -0.644532,-0.140625 -0.996094,-0.2578125 V -1.1259763 c 0.333984,0.17285155 0.662109,0.3017578 0.984375,0.38671874 0.319336,0.0878906 0.638672,0.12890625 0.960937,0.12890625 0.421875,0 0.744141,-0.0703125 0.972657,-0.2109375 0.225586,-0.14648438 0.339843,-0.35449219 0.339843,-0.62109379 0,-0.2402343 -0.08203,-0.4248046 -0.246093,-0.5507812 -0.164063,-0.1318359 -0.524414,-0.2607422 -1.078125,-0.3867188 l -0.316407,-0.070312 c -0.55664,-0.1171875 -0.958007,-0.2958984 -1.207031,-0.5390625 -0.243164,-0.2402343 -0.363281,-0.5742187 -0.363281,-0.9960937 0,-0.515625 0.178711,-0.9140625 0.539062,-1.1953125 0.366211,-0.28125 0.884766,-0.421875 1.558594,-0.421875 0.328125,0 0.635742,0.029297 0.925781,0.082031 0.295899,0.046875 0.56836,0.1171875 0.820313,0.2109372 z m 3.313477,-1.9804687 h 0.820312 l -2.53125,8.21484374 h -0.832031 z m 2.630859,6.46874999 V 2.0732424 h -0.914063 v -7.5351562 h 0.914063 v 0.8203125 c 0.1875,-0.3193359 0.421875,-0.5566406 0.703125,-0.7148438 0.287109,-0.1640625 0.635742,-0.2460937 1.042969,-0.2460937 0.662109,0 1.201172,0.2666016 1.617187,0.796875 0.413086,0.5244141 0.621094,1.2158203 0.621094,2.0742187 0,0.8613282 -0.208008,1.5556641 -0.621094,2.08593754 -0.416015,0.52441406 -0.955078,0.78515625 -1.617187,0.78515625 -0.407227,0 -0.75586,-0.07910156 -1.042969,-0.234375 -0.28125,-0.15527344 -0.515625,-0.3984375 -0.703125,-0.7265625 z m 3.046875,-1.91015629 c 0,-0.65625 -0.137695,-1.171875 -0.410156,-1.546875 -0.266602,-0.3808593 -0.638672,-0.5742187 -1.113282,-0.5742187 -0.477539,0 -0.852539,0.1933594 -1.125,0.5742187 -0.266601,0.375 -0.398437,0.890625 -0.398437,1.546875 0,0.6650391 0.131836,1.1835938 0.398437,1.5585938 0.272461,0.37499999 0.647461,0.56249999 1.125,0.56249999 0.47461,0 0.84668,-0.1875 1.113282,-0.56249999 0.272461,-0.375 0.410156,-0.8935547 0.410156,-1.5585938 z m 4.538086,-2.109375 c -0.477539,0 -0.855469,0.1875 -1.136719,0.5625 -0.28125,0.375 -0.421875,0.890625 -0.421875,1.546875 0,0.65625 0.134766,1.171875 0.410156,1.546875 0.28125,0.37500004 0.66211,0.56250004 1.148438,0.56250004 0.474609,0 0.855469,-0.1875 1.136719,-0.56250004 0.28125,-0.3808593 0.421875,-0.8964843 0.421875,-1.546875 0,-0.6474609 -0.140625,-1.1601562 -0.421875,-1.5351562 -0.28125,-0.3808594 -0.66211,-0.5742188 -1.136719,-0.5742188 z m 0,-0.7617187 c 0.779297,0 1.394531,0.2548828 1.839844,0.7617187 0.445312,0.5097657 0.667968,1.2128907 0.667968,2.109375 0,0.8994141 -0.222656,1.6025391 -0.667968,2.10937504 -0.445313,0.50976562 -1.060547,0.76171875 -1.839844,0.76171875 -0.782227,0 -1.394531,-0.25195313 -1.839844,-0.76171875 C 84.084762,-1.128906 83.862105,-1.832031 83.862105,-2.7314451 c 0,-0.8964843 0.222657,-1.5996093 0.667969,-2.109375 0.445313,-0.5068359 1.057617,-0.7617187 1.839844,-0.7617187 z m 7.479492,0.2929687 v 0.8554688 c -0.257812,-0.1318359 -0.524414,-0.2285156 -0.796875,-0.2929688 -0.275391,-0.070312 -0.556641,-0.1054687 -0.84375,-0.1054687 -0.445312,0 -0.782227,0.070312 -1.007812,0.2109375 -0.219727,0.1347656 -0.328125,0.3369141 -0.328125,0.609375 0,0.2109375 0.07617,0.375 0.234375,0.4921875 0.164062,0.1171875 0.483398,0.2314453 0.960937,0.3398437 l 0.304688,0.070312 c 0.638671,0.140625 1.092773,0.3369141 1.359375,0.5859375 0.27246,0.2431641 0.410156,0.5859375 0.410156,1.03125 0,0.5097657 -0.205078,0.91113285 -0.609375,1.20703129 -0.398438,0.29882812 -0.949219,0.4453125 -1.652344,0.4453125 -0.298828,0 -0.606445,-0.0292969 -0.925781,-0.08203125 -0.313477,-0.05566406 -0.644531,-0.140625 -0.996094,-0.2578125 V -1.1259763 c 0.333984,0.17285155 0.662109,0.3017578 0.984375,0.38671874 0.319336,0.0878906 0.638672,0.12890625 0.960938,0.12890625 0.421875,0 0.74414,-0.0703125 0.972656,-0.2109375 0.225586,-0.14648438 0.339844,-0.35449219 0.339844,-0.62109379 0,-0.2402343 -0.08203,-0.4248046 -0.246094,-0.5507812 -0.164063,-0.1318359 -0.524414,-0.2607422 -1.078125,-0.3867188 l -0.316406,-0.070312 C 91.019332,-2.5673821 90.617965,-2.746093 90.368941,-2.9892571 90.125777,-3.2294914 90.00566,-3.5634758 90.00566,-3.9853508 c 0,-0.515625 0.178711,-0.9140625 0.539063,-1.1953125 0.36621,-0.28125 0.884765,-0.421875 1.558593,-0.421875 0.328125,0 0.635742,0.029297 0.925782,0.082031 0.295898,0.046875 0.568359,0.1171875 0.820312,0.2109372 z m 5.868164,6.9726563 V 2.3544924 H 94.526168 V 1.6630862 Z M 101.4373,-0.82128881 V 2.0732424 h -0.91406 v -7.5351562 h 0.91406 v 0.8203125 c 0.1875,-0.3193359 0.42188,-0.5566406 0.70313,-0.7148438 0.28711,-0.1640625 0.63574,-0.2460937 1.04296,-0.2460937 0.66211,0 1.20118,0.2666016 1.61719,0.796875 0.41309,0.5244141 0.6211,1.2158203 0.6211,2.0742187 0,0.8613282 -0.20801,1.5556641 -0.6211,2.08593754 -0.41601,0.52441406 -0.95508,0.78515625 -1.61719,0.78515625 -0.40722,0 -0.75585,-0.07910156 -1.04296,-0.234375 -0.28125,-0.15527344 -0.51563,-0.3984375 -0.70313,-0.7265625 z m 3.04688,-1.91015629 c 0,-0.65625 -0.1377,-1.171875 -0.41016,-1.546875 -0.2666,-0.3808593 -0.63867,-0.5742187 -1.11328,-0.5742187 -0.47754,0 -0.85254,0.1933594 -1.125,0.5742187 -0.2666,0.375 -0.39844,0.890625 -0.39844,1.546875 0,0.6650391 0.13184,1.1835938 0.39844,1.5585938 0.27246,0.37499999 0.64746,0.56249999 1.125,0.56249999 0.47461,0 0.84668,-0.1875 1.11328,-0.56249999 0.27246,-0.375 0.41016,-0.8935547 0.41016,-1.5585938 z m 4.53515,-2.109375 c -0.47754,0 -0.85547,0.1875 -1.13672,0.5625 -0.28125,0.375 -0.42187,0.890625 -0.42187,1.546875 0,0.65625 0.13476,1.171875 0.41015,1.546875 0.28125,0.37500004 0.66211,0.56250004 1.14844,0.56250004 0.47461,0 0.85547,-0.1875 1.13672,-0.56250004 0.28125,-0.3808593 0.42188,-0.8964843 0.42188,-1.546875 0,-0.6474609 -0.14063,-1.1601562 -0.42188,-1.5351562 -0.28125,-0.3808594 -0.66211,-0.5742188 -1.13672,-0.5742188 z m 0,-0.7617187 c 0.7793,0 1.39453,0.2548828 1.83985,0.7617187 0.44531,0.5097657 0.66796,1.2128907 0.66796,2.109375 0,0.8994141 -0.22265,1.6025391 -0.66796,2.10937504 -0.44532,0.50976562 -1.06055,0.76171875 -1.83985,0.76171875 -0.78222,0 -1.39453,-0.25195313 -1.83984,-0.76171875 -0.44531,-0.50683594 -0.66797,-1.20996094 -0.66797,-2.10937504 0,-0.8964843 0.22266,-1.5996093 0.66797,-2.109375 0.44531,-0.5068359 1.05762,-0.7617187 1.83984,-0.7617187 z m 3.98731,0.140625 h 0.90234 v 5.4609374875 h -0.90234 z m 0,-2.1328125 h 0.90234 v 1.1367187 h -0.90234 z m 7.31836,4.2890625 v 3.3046874875 h -0.89063 V -3.2705076 c 0,-0.515625 -0.10254,-0.9023437 -0.30469,-1.1601562 -0.20507,-0.2578125 -0.50976,-0.3867188 -0.91406,-0.3867188 -0.48633,0 -0.86719,0.1582032 -1.14844,0.46875 -0.27539,0.3046875 -0.41015,0.7236329 -0.41015,1.2539063 v 3.0937499875 h -0.91407 V -5.4619138 h 0.91407 v 0.84375 c 0.21093,-0.328125 0.45996,-0.5742188 0.75,-0.7382813 0.2959,-0.1640625 0.63281,-0.2460937 1.00781,-0.2460937 0.63281,0 1.10742,0.1962891 1.42969,0.5859375 0.31933,0.3925781 0.48047,0.9609375 0.48047,1.7109375 z m 2.7041,-3.7148438 v 1.5585938 h 1.85156 v 0.6914062 h -1.85156 v 2.9648438 c 0,0.4453125 0.0586,0.7353516 0.17578,0.86718749 0.12305,0.12597656 0.375,0.1875 0.75,0.1875 h 0.92578 v 0.7499999975 h -0.92578 c -0.68848,0 -1.16602,-0.1289062475 -1.42969,-0.3867187475 -0.2666,-0.2578125 -0.39844,-0.72949214 -0.39844,-1.41796874 v -2.9648438 h -0.65625 v -0.6914062 h 0.65625 v -1.5585938 z m 6.52148,1.7109375 v 0.8554688 c -0.25781,-0.1318359 -0.52441,-0.2285156 -0.79687,-0.2929688 -0.27539,-0.070312 -0.55664,-0.1054687 -0.84375,-0.1054687 -0.44532,0 -0.78223,0.070312 -1.00782,0.2109375 -0.21972,0.1347656 -0.32812,0.3369141 -0.32812,0.609375 0,0.2109375 0.0762,0.375 0.23437,0.4921875 0.16407,0.1171875 0.4834,0.2314453 0.96094,0.3398437 l 0.30469,0.070312 c 0.63867,0.140625 1.09277,0.3369141 1.35937,0.5859375 0.27247,0.2431641 0.41016,0.5859375 0.41016,1.03125 0,0.5097657 -0.20508,0.91113285 -0.60937,1.20703129 -0.39844,0.29882812 -0.94922,0.4453125 -1.65235,0.4453125 -0.29883,0 -0.60644,-0.0292969 -0.92578,-0.08203125 -0.31348,-0.05566406 -0.64453,-0.140625 -0.99609,-0.2578125 V -1.1259763 c 0.33398,0.17285155 0.66211,0.3017578 0.98437,0.38671874 0.31934,0.0878906 0.63867,0.12890625 0.96094,0.12890625 0.42187,0 0.74414,-0.0703125 0.97266,-0.2109375 0.22558,-0.14648438 0.33984,-0.35449219 0.33984,-0.62109379 0,-0.2402343 -0.082,-0.4248046 -0.24609,-0.5507812 -0.16407,-0.1318359 -0.52442,-0.2607422 -1.07813,-0.3867188 l -0.31641,-0.070312 c -0.55664,-0.1171875 -0.958,-0.2958984 -1.20703,-0.5390625 -0.24316,-0.2402343 -0.36328,-0.5742187 -0.36328,-0.9960937 0,-0.515625 0.17871,-0.9140625 0.53906,-1.1953125 0.36622,-0.28125 0.88477,-0.421875 1.5586,-0.421875 0.32812,0 0.63574,0.029297 0.92578,0.082031 0.2959,0.046875 0.56836,0.1171875 0.82031,0.2109372 z m 1.56738,-2.2734375 h 0.78516 c 0.4834,0.7675782 0.84668,1.5175782 1.08984,2.25 0.24024,0.7353516 0.36329,1.4648438 0.36329,2.1914063 0,0.7265625 -0.12305,1.4619141 -0.36329,2.20312499 -0.24316,0.74414062 -0.60644,1.49121094 -1.08984,2.25000001 h -0.78516 c 0.43653,-0.74414064 0.76172,-1.4794922 0.97266,-2.21484376 0.21094,-0.74121094 0.31641,-1.48828124 0.31641,-2.23828124 0,-0.75 -0.10547,-1.4882813 -0.31641,-2.2148438 -0.21094,-0.7324218 -0.53613,-1.4765625 -0.97266,-2.2265625 z m 0,0"
       style="fill:#000000;fill-opacity:1;fill-rule:nonzero;stroke:none"
       aria-label="log(neg_points/pos_poin&#10;ts)"
       transform="matrix(0,-1.3333333,1.3333333,0,10.130208,198.55833)" />
    <g
       id="g46"
       clip-path="url(#clipPath47)">
      <path
         d="m 37.73,-23.16 0.524,0.824 0.523,2.012 1.567,7.179 0.519,1.61 0.524,1.144 0.523,0.786 1.043,0.929 1.043,0.555 1.043,0.332 0.523,-0.004 0.524,-0.219 0.519,-0.582 0.524,-1.109 0.523,-1.848 0.52,-2.785 0.523,-3.926 0.524,-5.242 0.519,-6.691 1.047,-18.063 1.043,-24.148 2.086,-53.852 0.524,-9.09 0.523,-6.082 0.519,-3.73 0.524,-2.211 0.523,-1.356 0.52,-0.937 1.047,-1.274 1.043,-0.867 1.043,-0.582 1.566,-0.496 2.09,-0.426 1.566,-0.101 2.61,-0.082 5.222,-0.477 1.563,-0.094 4.699,0.055 2.613,-0.109 5.743,0.043 3.652,-0.352 2.613,0.196 2.086,0.082 4.176,-0.079 2.09,0.149 3.652,-0.203 4.699,-0.266 4.7,0.262 3.656,0.035 2.086,-0.082 3.656,-0.316 1.566,0.144 2.086,0.348 1.047,-0.016 3.133,-0.332 4.176,0.219 5.742,-0.442 8.875,0.098 8.875,-0.371 9.918,0.004 3.656,-0.109 2.61,0.085 6.265,-0.078 5.223,0.219 1.562,-0.144 2.614,-0.36 7.828,-0.18 7.312,0.125 2.086,0.129 3.133,-0.14 2.609,-0.102 8.356,0.113 2.086,-0.023 2.613,0.051 4.176,-0.156 13.574,0.304"
         style="fill:none;stroke:#1f77b4;stroke-width:1.5;stroke-linecap:square;stroke-linejoin:round;stroke-miterlimit:10;stroke-dasharray:none;stroke-opacity:1"
         transform="scale(1.3333333,-1.3333333)"
         clip-path="url(#clipPath45)"
         id="path46" />
    </g>
    <g
       id="g49"
       clip-path="url(#clipPath50)">
      <path
         d="m 37.73,-154 6.266,0.168 2.09,0.082 7.828,-0.086 1.566,0.035 3.133,-0.054 7.832,0.25 1.567,-0.122 2.609,-0.293 12.531,0.188 2.086,-0.016 5.223,-0.257 3.133,0.136 3.652,0.074 2.09,-0.027 3.133,-0.152 5.219,0.359 2.089,0.121 2.09,-0.144 3.133,-0.239 10.961,0.098 3.133,-0.172 2.09,0.231 2.086,0.144 4.175,-0.113 6.266,-0.234 4.699,0.359 3.133,-0.231 1.566,-0.101 4.7,0.004 2.086,-0.094 7.312,0.137 2.609,-0.074 2.086,-0.024 2.614,0.078 2.086,0.063 3.132,0.211 5.743,-0.024 5.222,-0.179 4.176,0.019 4.176,-0.117 5.222,0.359 6.262,-0.16 2.613,0.086 7.829,-0.172 2.089,0.039 3.657,-0.105 3.132,0.004 4.176,-0.215 3.653,0.387 4.175,-0.192 4.18,-0.183"
         style="fill:none;stroke:#ff7f0e;stroke-width:1.5;stroke-linecap:square;stroke-linejoin:round;stroke-miterlimit:10;stroke-dasharray:none;stroke-opacity:1"
         transform="scale(1.3333333,-1.3333333)"
         clip-path="url(#clipPath48)"
         id="path49" />
    </g>
    <path
       id="path51"
       d="M 27.316,-163 V -0.398"
       style="fill:none;stroke:#000000;stroke-width:0.8;stroke-linecap:square;stroke-linejoin:miter;stroke-miterlimit:10;stroke-dasharray:none;stroke-opacity:1"
       transform="scale(1.3333333,-1.3333333)" />
    <path
       id="path52"
       d="M 256.453,-163 V -0.398"
       style="fill:none;stroke:#000000;stroke-width:0.8;stroke-linecap:square;stroke-linejoin:miter;stroke-miterlimit:10;stroke-dasharray:none;stroke-opacity:1"
       transform="scale(1.3333333,-1.3333333)" />
    <path
       id="path53"
       d="M 27.316,-163 H 256.453"
       style="fill:none;stroke:#000000;stroke-width:0.8;stroke-linecap:square;stroke-linejoin:miter;stroke-miterlimit:10;stroke-dasharray:none;stroke-opacity:1"
       transform="scale(1.3333333,-1.3333333)" />
    <path
       id="path54"
       d="M 27.316,-0.398 H 256.453"
       style="fill:none;stroke:#000000;stroke-width:0.8;stroke-linecap:square;stroke-linejoin:miter;stroke-miterlimit:10;stroke-dasharray:none;stroke-opacity:1"
       transform="scale(1.3333333,-1.3333333)" />
    <path
       id="path55"
       d="m 135.344,37.742 h 114.109 c 1.332,0 2,-0.664 2,-2 V 7.398 c 0,-1.332 -0.668,-2 -2,-2 H 135.344 c -1.332,0 -2,0.668 -2,2 v 28.344 c 0,1.336 0.668,2 2,2 z"
       style="fill:#ffffff;fill-opacity:0.8;fill-rule:nonzero;stroke:none"
       transform="scale(1.3333333)" />
    <path
       id="path56"
       d="m 135.344,-37.742 h 114.109 c 1.332,0 2,0.664 2,2 v 28.344 c 0,1.332 -0.668,2 -2,2 H 135.344 c -1.332,0 -2,-0.668 -2,-2 v -28.344 c 0,-1.336 0.668,-2 2,-2 z"
       style="fill:none;stroke:#cccccc;stroke-width:1;stroke-linecap:butt;stroke-linejoin:miter;stroke-miterlimit:10;stroke-dasharray:none;stroke-opacity:0.8"
       transform="scale(1.3333333,-1.3333333)" />
    <path
       id="path57"
       d="m 137.344,-13.492 h 20"
       style="fill:none;stroke:#1f77b4;stroke-width:1.5;stroke-linecap:square;stroke-linejoin:round;stroke-miterlimit:10;stroke-dasharray:none;stroke-opacity:1"
       transform="scale(1.3333333,-1.3333333)" />
    <path
       id="path58"
       d="m 4.4286859,-5.3072286 v 0.8554688 c -0.2578125,-0.1318359 -0.524414,-0.2285156 -0.796875,-0.2929688 -0.2753906,-0.070312 -0.5566406,-0.1054687 -0.84375,-0.1054687 -0.4453125,0 -0.7822265,0.070312 -1.0078125,0.2109375 -0.2197265,0.1347656 -0.328125,0.3369141 -0.328125,0.609375 0,0.2109375 0.076172,0.375 0.234375,0.4921875 0.1640625,0.1171875 0.4833985,0.2314453 0.9609375,0.3398437 l 0.3046875,0.070312 c 0.6386719,0.140625 1.0927735,0.3369141 1.359375,0.5859375 0.272461,0.2431641 0.4101563,0.5859375 0.4101563,1.03125 0,0.5097657 -0.2050781,0.91113285 -0.609375,1.20703129 -0.3984375,0.29882812 -0.9492188,0.4453125 -1.6523438,0.4453125 -0.2988281,0 -0.6064453,-0.0292969 -0.9257812,-0.08203125 -0.3134766,-0.05566406 -0.64453126,-0.140625 -0.99609376,-0.2578125 V -1.1236348 c 0.33398437,0.17285155 0.66210936,0.3017578 0.98437496,0.38671874 0.319336,0.0878906 0.6386719,0.12890625 0.9609375,0.12890625 0.421875,0 0.7441407,-0.0703125 0.9726563,-0.2109375 0.2255859,-0.14648438 0.3398437,-0.35449219 0.3398437,-0.62109379 0,-0.2402343 -0.082031,-0.4248046 -0.2460937,-0.5507812 C 3.3857172,-2.1226582 3.0253656,-2.2515645 2.4716547,-2.3775411 L 2.1552484,-2.4478536 C 1.5986078,-2.5650411 1.1972406,-2.743752 0.94821719,-2.9869161 0.70505313,-3.2271504 0.58493594,-3.5611348 0.58493594,-3.9830098 c 0,-0.515625 0.17871094,-0.9140625 0.53906246,-1.1953125 0.366211,-0.28125 0.8847657,-0.421875 1.5585938,-0.421875 0.328125,0 0.6357422,0.029297 0.9257812,0.082031 0.2958985,0.046875 0.5683594,0.1171875 0.8203125,0.2109377 z m 6.3837891,2.3554688 v 0.4335937 h -4.125 c 0.038086,0.6181641 0.2226563,1.0898438 0.5507813,1.4179688 0.3339843,0.32226561 0.8027343,0.48046874 1.40625,0.48046874 0.3427734,0 0.6738281,-0.0410156 0.9960937,-0.12890625 0.328125,-0.0849609 0.647461,-0.2109375 0.960938,-0.37499999 v 0.84374999 c -0.322266,0.140625 -0.6503911,0.24609375 -0.9843755,0.31640625 -0.3369141,0.0703125 -0.6796875,0.10546875 -1.03125,0.10546875 -0.8759766,0 -1.5673828,-0.25195313 -2.0742187,-0.76171875 C 6.0019281,-1.1265645 5.749975,-1.8150411 5.749975,-2.6822286 c 0,-0.890625 0.2402344,-1.5966796 0.7265625,-2.1210937 0.4833984,-0.5302734 1.1367188,-0.796875 1.9570313,-0.796875 0.7324218,0 1.3125,0.2402344 1.7343752,0.7148437 0.427734,0.46875 0.644531,1.1132813 0.644531,1.9335938 z M 9.92185,-3.2212911 C 9.9130609,-3.7134786 9.7724359,-4.103127 9.499975,-4.3931661 9.2333734,-4.6890645 8.8818109,-4.8384786 8.4452875,-4.8384786 c -0.5097656,0 -0.9140625,0.1464844 -1.21875,0.4335938 -0.2988281,0.28125 -0.4658203,0.6796875 -0.5039062,1.1953125 z m 6.629883,-1.1953125 c 0.216797,-0.4042968 0.483398,-0.703125 0.796875,-0.890625 0.310547,-0.1933593 0.679687,-0.2929687 1.101562,-0.2929687 0.56836,0 1.007813,0.1992187 1.3125,0.5976562 0.310547,0.3984375 0.46875,0.9667969 0.46875,1.6992188 V 0.00136519 H 19.329077 V -3.2681661 c 0,-0.5214843 -0.09375,-0.9082031 -0.28125,-1.1601562 -0.181641,-0.2578125 -0.462891,-0.3867188 -0.84375,-0.3867188 -0.462891,0 -0.829102,0.1582032 -1.101563,0.46875 -0.275391,0.3046875 -0.410156,0.7236329 -0.410156,1.2539063 V 0.00136519 H 15.790014 V -3.2681661 c 0,-0.5302734 -0.09375,-0.9199218 -0.28125,-1.171875 -0.181641,-0.2490234 -0.46582,-0.375 -0.855469,-0.375 -0.454101,0 -0.817382,0.1582032 -1.089843,0.46875 -0.266602,0.3046875 -0.398438,0.7236329 -0.398438,1.2539063 V 0.00136519 H 12.250952 V -5.4595723 h 0.914062 v 0.84375 c 0.202149,-0.3339844 0.445313,-0.5800781 0.726563,-0.7382813 0.287109,-0.1640625 0.626953,-0.2460937 1.019531,-0.2460937 0.398437,0 0.738281,0.1025391 1.019531,0.3046875 0.28125,0.2050781 0.486328,0.4980469 0.621094,0.8789062 z m 5.475586,-1.0429687 h 0.902344 v 5.46093749 h -0.902344 z m 0,-2.1328125 h 0.902344 v 1.1367187 h -0.902344 z m 2.326172,4.453125 h 2.625 v 0.796875 h -2.625 z m 7.535156,-2.1679688 v 0.8554688 c -0.257813,-0.1318359 -0.524414,-0.2285156 -0.796875,-0.2929688 -0.275391,-0.070312 -0.556641,-0.1054687 -0.84375,-0.1054687 -0.445313,0 -0.782227,0.070312 -1.007813,0.2109375 -0.219726,0.1347656 -0.328125,0.3369141 -0.328125,0.609375 0,0.2109375 0.07617,0.375 0.234375,0.4921875 0.164063,0.1171875 0.483399,0.2314453 0.960938,0.3398437 l 0.304687,0.070312 c 0.638672,0.140625 1.092774,0.3369141 1.359375,0.5859375 0.272461,0.2431641 0.410157,0.5859375 0.410157,1.03125 0,0.5097657 -0.205078,0.91113285 -0.609375,1.20703129 -0.398438,0.29882812 -0.949219,0.4453125 -1.652344,0.4453125 -0.298828,0 -0.606445,-0.0292969 -0.925781,-0.08203125 -0.313477,-0.05566406 -0.644532,-0.140625 -0.996094,-0.2578125 V -1.1236348 c 0.333984,0.17285155 0.662109,0.3017578 0.984375,0.38671874 0.319336,0.0878906 0.638672,0.12890625 0.960937,0.12890625 0.421875,0 0.744141,-0.0703125 0.972657,-0.2109375 0.225586,-0.14648438 0.339843,-0.35449219 0.339843,-0.62109379 0,-0.2402343 -0.08203,-0.4248046 -0.246093,-0.5507812 -0.164063,-0.1318359 -0.524414,-0.2607422 -1.078125,-0.3867188 l -0.316407,-0.070312 c -0.55664,-0.1171875 -0.958007,-0.2958984 -1.207031,-0.5390625 -0.243164,-0.2402343 -0.363281,-0.5742187 -0.363281,-0.9960937 0,-0.515625 0.178711,-0.9140625 0.539062,-1.1953125 0.366211,-0.28125 0.884766,-0.421875 1.558594,-0.421875 0.328125,0 0.635742,0.029297 0.925781,0.082031 0.295899,0.046875 0.56836,0.1171875 0.820313,0.2109372 z m 1.614258,3.1523438 v -3.3046875 h 0.902343 v 3.2695312 c 0,0.515625 0.09961,0.9023438 0.304688,1.1601563 0.202148,0.25781249 0.503906,0.38671874 0.902344,0.38671874 0.483398,0 0.867187,-0.15234375 1.148437,-0.45703124 0.28711,-0.3105469 0.433594,-0.7324219 0.433594,-1.265625 v -3.09375 h 0.890625 v 5.46093749 h -0.890625 v -0.84375 c -0.219727,0.33691406 -0.474609,0.5859375 -0.761719,0.75 -0.290039,0.15527344 -0.626953,0.234375 -1.007812,0.234375 -0.626953,0 -1.101563,-0.19335938 -1.429688,-0.5859375 -0.328125,-0.38964844 -0.492187,-0.96093749 -0.492187,-1.71093749 z m 2.261718,-3.4453125 z m 5.041993,4.78124999 V 2.0755839 h -0.914063 v -7.5351562 h 0.914063 v 0.8203125 c 0.1875,-0.3193359 0.421875,-0.5566406 0.703125,-0.7148438 0.287109,-0.1640625 0.635742,-0.2460937 1.042968,-0.2460937 0.66211,0 1.201172,0.2666016 1.617188,0.796875 0.413086,0.5244141 0.621094,1.2158203 0.621094,2.0742187 0,0.8613282 -0.208008,1.5556641 -0.621094,2.08593754 -0.416016,0.52441406 -0.955078,0.78515625 -1.617188,0.78515625 -0.407226,0 -0.755859,-0.07910156 -1.042968,-0.234375 -0.28125,-0.15527344 -0.515625,-0.3984375 -0.703125,-0.7265625 z m 3.046875,-1.91015629 c 0,-0.65625 -0.137696,-1.171875 -0.410157,-1.546875 -0.266601,-0.3808593 -0.638671,-0.5742187 -1.113281,-0.5742187 -0.477539,0 -0.852539,0.1933594 -1.125,0.5742187 -0.266601,0.375 -0.398437,0.890625 -0.398437,1.546875 0,0.6650391 0.131836,1.1835938 0.398437,1.5585938 0.272461,0.37499999 0.647461,0.56249999 1.125,0.56249999 0.47461,0 0.84668,-0.1875 1.113281,-0.56249999 0.272461,-0.375 0.410157,-0.8935547 0.410157,-1.5585938 z m 7.089843,-0.2226562 v 0.4335937 h -4.125 c 0.03809,0.6181641 0.222657,1.0898438 0.550782,1.4179688 0.333984,0.32226561 0.802734,0.48046874 1.40625,0.48046874 0.342773,0 0.673828,-0.0410156 0.996093,-0.12890625 0.328125,-0.0849609 0.647461,-0.2109375 0.960938,-0.37499999 v 0.84374999 c -0.322266,0.140625 -0.650391,0.24609375 -0.984375,0.31640625 -0.336914,0.0703125 -0.679688,0.10546875 -1.03125,0.10546875 -0.875977,0 -1.567383,-0.25195313 -2.074219,-0.76171875 -0.509765,-0.50683594 -0.761719,-1.19531254 -0.761719,-2.06250004 0,-0.890625 0.240235,-1.5966796 0.726563,-2.1210937 0.483398,-0.5302734 1.136719,-0.796875 1.957031,-0.796875 0.732422,0 1.3125,0.2402344 1.734375,0.7148437 0.427735,0.46875 0.644531,1.1132813 0.644531,1.9335938 z m -0.890625,-0.2695313 c -0.0088,-0.4921875 -0.149414,-0.8818359 -0.421875,-1.171875 -0.266601,-0.2958984 -0.618164,-0.4453125 -1.054687,-0.4453125 -0.509766,0 -0.914063,0.1464844 -1.21875,0.4335938 -0.298828,0.28125 -0.46582,0.6796875 -0.503906,1.1953125 z m 5.540039,-1.40625 c -0.102539,-0.052734 -0.216796,-0.09375 -0.339843,-0.1171875 -0.117188,-0.029297 -0.246094,-0.046875 -0.386719,-0.046875 -0.509766,0 -0.899414,0.1640625 -1.171875,0.4921875 -0.266602,0.328125 -0.398438,0.8027344 -0.398438,1.4179688 V 0.00136519 H 52.381811 V -5.4595723 h 0.914062 v 0.84375 c 0.1875,-0.328125 0.427735,-0.5742188 0.726563,-0.7382813 0.304687,-0.1640625 0.673828,-0.2460937 1.113281,-0.2460937 0.05273,0 0.120117,0.00586 0.199219,0.011719 0.07617,0.00879 0.158203,0.020508 0.246094,0.035156 z m 0.29004,-0.8320312 h 0.960937 l 1.699219,4.58203124 1.710937,-4.58203124 H 61.2031 l -2.050781,5.46093749 h -1.21875 z m 6.55371,0 h 0.902344 v 5.46093749 h -0.902344 z m 0,-2.1328125 h 0.902344 v 1.1367187 h -0.902344 z m 6.263672,2.2851562 v 0.8554688 c -0.257812,-0.1318359 -0.524414,-0.2285156 -0.796875,-0.2929688 -0.27539,-0.070312 -0.55664,-0.1054687 -0.84375,-0.1054687 -0.445312,0 -0.782226,0.070312 -1.007812,0.2109375 -0.219727,0.1347656 -0.328125,0.3369141 -0.328125,0.609375 0,0.2109375 0.07617,0.375 0.234375,0.4921875 0.164062,0.1171875 0.483398,0.2314453 0.960937,0.3398437 l 0.304688,0.070312 c 0.638672,0.140625 1.092773,0.3369141 1.359375,0.5859375 0.272461,0.2431641 0.410156,0.5859375 0.410156,1.03125 0,0.5097657 -0.205078,0.91113285 -0.609375,1.20703129 -0.398437,0.29882812 -0.949219,0.4453125 -1.652344,0.4453125 -0.298828,0 -0.606445,-0.0292969 -0.925781,-0.08203125 -0.313476,-0.05566406 -0.644531,-0.140625 -0.996094,-0.2578125 V -1.1236348 c 0.333985,0.17285155 0.66211,0.3017578 0.984375,0.38671874 0.319336,0.0878906 0.638672,0.12890625 0.960938,0.12890625 0.421875,0 0.74414,-0.0703125 0.972656,-0.2109375 0.225586,-0.14648438 0.339844,-0.35449219 0.339844,-0.62109379 0,-0.2402343 -0.08203,-0.4248046 -0.246094,-0.5507812 -0.164062,-0.1318359 -0.524414,-0.2607422 -1.078125,-0.3867188 l -0.316406,-0.070312 c -0.556641,-0.117188 -0.958008,-0.2958989 -1.207031,-0.539063 -0.243164,-0.2402343 -0.363282,-0.5742187 -0.363282,-0.9960937 0,-0.515625 0.178711,-0.9140625 0.539063,-1.1953125 0.366211,-0.28125 0.884765,-0.421875 1.558594,-0.421875 0.328125,0 0.635742,0.029297 0.925781,0.082031 0.295898,0.046875 0.568359,0.1171875 0.820312,0.2109377 z m 6.383789,2.3554688 v 0.4335937 h -4.125 c 0.03809,0.6181641 0.222657,1.0898438 0.550782,1.4179688 0.333984,0.32226561 0.802734,0.48046874 1.40625,0.48046874 0.342773,0 0.673828,-0.0410156 0.996093,-0.12890625 0.328125,-0.0849609 0.647461,-0.2109375 0.960938,-0.37499999 v 0.84374999 c -0.322266,0.140625 -0.650391,0.24609375 -0.984375,0.31640625 -0.336914,0.0703125 -0.679688,0.10546875 -1.03125,0.10546875 -0.875977,0 -1.567383,-0.25195313 -2.074219,-0.76171875 -0.509765,-0.50683594 -0.761719,-1.19531254 -0.761719,-2.06250004 0,-0.890625 0.240235,-1.5966796 0.726563,-2.1210937 0.483398,-0.5302734 1.136719,-0.796875 1.957031,-0.796875 0.732422,0 1.3125,0.2402344 1.734375,0.7148437 0.427735,0.46875 0.644531,1.1132813 0.644531,1.9335938 z m -0.890625,-0.2695313 c -0.0088,-0.4921875 -0.149414,-0.8818359 -0.421875,-1.171875 -0.266601,-0.2958984 -0.618164,-0.4453125 -1.054687,-0.4453125 -0.509766,0 -0.914063,0.1464844 -1.21875,0.4335938 -0.298828,0.28125 -0.46582,0.6796875 -0.503906,1.1953125 z m 5.961914,-1.4179687 v -2.953125 h 0.902344 v 7.59374999 h -0.902344 v -0.8203125 c -0.1875,0.328125 -0.427734,0.57128906 -0.714843,0.7265625 -0.290039,0.15527344 -0.632813,0.234375 -1.03125,0.234375 -0.665039,0 -1.204102,-0.26074219 -1.617188,-0.78515625 -0.416015,-0.53027344 -0.621094,-1.22460934 -0.621094,-2.08593754 0,-0.8583984 0.205079,-1.5498046 0.621094,-2.0742187 0.413086,-0.5302734 0.952149,-0.796875 1.617188,-0.796875 0.398437,0 0.741211,0.082031 1.03125,0.2460937 0.287109,0.1582032 0.527343,0.3955079 0.714843,0.7148438 z m -3.058593,1.9101562 c 0,0.6650391 0.134765,1.1835938 0.410156,1.5585938 0.272461,0.37499999 0.647461,0.56249999 1.125,0.56249999 0.46875,0 0.837891,-0.1875 1.113281,-0.56249999 0.272461,-0.375 0.410156,-0.8935547 0.410156,-1.5585938 0,-0.65625 -0.137695,-1.171875 -0.410156,-1.546875 -0.27539,-0.3808593 -0.644531,-0.5742187 -1.113281,-0.5742187 -0.477539,0 -0.852539,0.1933594 -1.125,0.5742187 -0.275391,0.375 -0.410156,0.890625 -0.410156,1.546875 z m 0,0"
       style="fill:#000000;fill-opacity:1;fill-rule:nonzero;stroke:none"
       aria-label="semi-supervised"
       transform="matrix(1.3333333,0,0,1.3333333,220.45837,22.658336)" />
    <path
       id="path59"
       d="m 137.344,-28.164 h 20"
       style="fill:none;stroke:#ff7f0e;stroke-width:1.5;stroke-linecap:square;stroke-linejoin:round;stroke-miterlimit:10;stroke-dasharray:none;stroke-opacity:1"
       transform="scale(1.3333333,-1.3333333)" />
    <path
       id="path60"
       d="m 4.4286859,-5.3072326 v 0.8554688 c -0.2578125,-0.1318359 -0.524414,-0.2285156 -0.796875,-0.2929688 -0.2753906,-0.070312 -0.5566406,-0.1054687 -0.84375,-0.1054687 -0.4453125,0 -0.7822265,0.070312 -1.0078125,0.2109375 -0.2197265,0.1347656 -0.328125,0.3369141 -0.328125,0.609375 0,0.2109375 0.076172,0.375 0.234375,0.4921875 0.1640625,0.1171875 0.4833985,0.2314453 0.9609375,0.3398437 l 0.3046875,0.070312 c 0.6386719,0.140625 1.0927735,0.3369141 1.359375,0.5859375 0.272461,0.2431641 0.4101563,0.5859375 0.4101563,1.03125 0,0.5097657 -0.2050781,0.91113285 -0.609375,1.20703129 -0.3984375,0.29882812 -0.9492188,0.4453125 -1.6523438,0.4453125 -0.2988281,0 -0.6064453,-0.0292969 -0.9257812,-0.08203125 -0.3134766,-0.05566406 -0.64453126,-0.140625 -0.99609376,-0.2578125 V -1.1236388 c 0.33398437,0.17285155 0.66210936,0.3017578 0.98437496,0.38671874 0.319336,0.0878906 0.6386719,0.12890625 0.9609375,0.12890625 0.421875,0 0.7441407,-0.0703125 0.9726563,-0.2109375 0.2255859,-0.14648438 0.3398437,-0.35449219 0.3398437,-0.62109379 0,-0.2402343 -0.082031,-0.4248046 -0.2460937,-0.5507812 C 3.3857172,-2.1226622 3.0253656,-2.2515685 2.4716547,-2.3775451 L 2.1552484,-2.4478576 C 1.5986078,-2.5650451 1.1972406,-2.743756 0.94821719,-2.9869201 0.70505313,-3.2271544 0.58493594,-3.5611388 0.58493594,-3.9830138 c 0,-0.515625 0.17871094,-0.9140625 0.53906246,-1.1953125 0.366211,-0.28125 0.8847657,-0.421875 1.5585938,-0.421875 0.328125,0 0.6357422,0.029297 0.9257812,0.082031 0.2958985,0.046875 0.5683594,0.1171875 0.8203125,0.2109377 z m 1.6142579,3.1523438 v -3.3046875 h 0.9023437 v 3.2695312 c 0,0.515625 0.099609,0.9023438 0.3046875,1.1601563 0.2021484,0.25781249 0.5039063,0.38671874 0.9023438,0.38671874 0.4833984,0 0.8671875,-0.15234375 1.1484375,-0.45703124 C 9.5878656,-1.4107482 9.73435,-1.8326232 9.73435,-2.3658263 v -3.09375 h 0.890625 V 0.00136119 H 9.73435 v -0.84375 c -0.2197266,0.33691406 -0.4746094,0.5859375 -0.7617187,0.75 -0.2900391,0.15527344 -0.6269532,0.234375 -1.0078125,0.234375 -0.6269532,0 -1.1015625,-0.19335938 -1.4296875,-0.5859375 C 6.2070063,-0.83359975 6.0429438,-1.4048888 6.0429438,-2.1548888 Z m 2.2617187,-3.4453125 z m 5.0419925,4.78124999 V 2.0755799 h -0.914063 v -7.5351562 h 0.914063 v 0.8203125 c 0.1875,-0.3193359 0.421875,-0.5566406 0.703125,-0.7148438 0.287109,-0.1640625 0.635742,-0.2460937 1.042968,-0.2460937 0.66211,0 1.201172,0.2666016 1.617188,0.796875 0.413086,0.5244141 0.621094,1.2158203 0.621094,2.0742187 0,0.8613282 -0.208008,1.5556641 -0.621094,2.08593754 -0.416016,0.52441406 -0.955078,0.78515625 -1.617188,0.78515625 -0.407226,0 -0.755859,-0.07910156 -1.042968,-0.234375 -0.28125,-0.15527344 -0.515625,-0.3984375 -0.703125,-0.7265625 z M 16.39353,-2.7291076 c 0,-0.65625 -0.137696,-1.171875 -0.410157,-1.546875 -0.266601,-0.3808593 -0.638671,-0.5742187 -1.113281,-0.5742187 -0.477539,0 -0.852539,0.1933594 -1.125,0.5742187 -0.266601,0.375 -0.398437,0.890625 -0.398437,1.546875 0,0.6650391 0.131836,1.1835938 0.398437,1.5585938 0.272461,0.37499999 0.647461,0.56249999 1.125,0.56249999 0.47461,0 0.84668,-0.1875 1.113281,-0.56249999 0.272461,-0.375 0.410157,-0.8935547 0.410157,-1.5585938 z m 7.089843,-0.2226562 v 0.4335937 h -4.125 c 0.03809,0.6181641 0.222657,1.0898438 0.550782,1.4179688 0.333984,0.32226561 0.802734,0.48046874 1.40625,0.48046874 0.342773,0 0.673828,-0.0410156 0.996093,-0.12890625 0.328125,-0.0849609 0.647461,-0.2109375 0.960938,-0.37499999 v 0.84374999 c -0.322266,0.140625 -0.650391,0.24609375 -0.984375,0.31640625 -0.336914,0.0703125 -0.679688,0.10546875 -1.03125,0.10546875 -0.875977,0 -1.567383,-0.25195313 -2.074219,-0.76171875 -0.509765,-0.50683594 -0.761719,-1.19531254 -0.761719,-2.06250004 0,-0.890625 0.240235,-1.5966796 0.726563,-2.1210937 0.483398,-0.5302734 1.136719,-0.796875 1.957031,-0.796875 0.732422,0 1.3125,0.2402344 1.734375,0.7148437 0.427735,0.46875 0.644531,1.1132813 0.644531,1.9335938 z m -0.890625,-0.2695313 c -0.0088,-0.4921875 -0.149414,-0.8818359 -0.421875,-1.171875 -0.266601,-0.2958984 -0.618164,-0.4453125 -1.054687,-0.4453125 -0.509766,0 -0.914063,0.1464844 -1.21875,0.4335938 -0.298828,0.28125 -0.46582,0.6796875 -0.503906,1.1953125 z m 5.54004,-1.40625 c -0.10254,-0.052734 -0.216797,-0.09375 -0.339844,-0.1171875 -0.117188,-0.029297 -0.246094,-0.046875 -0.386719,-0.046875 -0.509766,0 -0.899414,0.1640625 -1.171875,0.4921875 -0.266602,0.328125 -0.398437,0.8027344 -0.398437,1.4179688 V 0.00136119 H 24.92185 V -5.4595763 h 0.914063 v 0.84375 c 0.1875,-0.328125 0.427734,-0.5742188 0.726562,-0.7382813 0.304688,-0.1640625 0.673828,-0.2460937 1.113281,-0.2460937 0.05274,0 0.120117,0.00586 0.199219,0.011719 0.07617,0.00879 0.158203,0.020508 0.246094,0.035156 z m 0.290039,-0.8320312 h 0.960937 l 1.699219,4.58203124 1.710937,-4.58203124 h 0.949219 l -2.050781,5.46093749 h -1.21875 z m 6.553711,0 h 0.902343 v 5.46093749 h -0.902343 z m 0,-2.1328125 h 0.902343 v 1.1367187 h -0.902343 z m 6.263671,2.2851562 v 0.8554688 c -0.257812,-0.1318359 -0.524414,-0.2285156 -0.796875,-0.2929688 -0.27539,-0.070312 -0.55664,-0.1054687 -0.84375,-0.1054687 -0.445312,0 -0.782226,0.070312 -1.007812,0.2109375 -0.219727,0.1347656 -0.328125,0.3369141 -0.328125,0.609375 0,0.2109375 0.07617,0.375 0.234375,0.4921875 0.164062,0.1171875 0.483398,0.2314453 0.960937,0.3398437 l 0.304688,0.070312 c 0.638672,0.140625 1.092773,0.3369141 1.359375,0.5859375 0.272461,0.2431641 0.410156,0.5859375 0.410156,1.03125 0,0.5097657 -0.205078,0.91113285 -0.609375,1.20703129 -0.398437,0.29882812 -0.949219,0.4453125 -1.652344,0.4453125 -0.298828,0 -0.606445,-0.0292969 -0.925781,-0.08203125 -0.313476,-0.05566406 -0.644531,-0.140625 -0.996094,-0.2578125 V -1.1236388 c 0.333985,0.17285155 0.66211,0.3017578 0.984375,0.38671874 0.319336,0.0878906 0.638672,0.12890625 0.960938,0.12890625 0.421875,0 0.744141,-0.0703125 0.972656,-0.2109375 0.225586,-0.14648438 0.339844,-0.35449219 0.339844,-0.62109379 0,-0.2402343 -0.08203,-0.4248046 -0.246094,-0.5507812 -0.164062,-0.1318359 -0.524414,-0.2607422 -1.078125,-0.3867188 l -0.316406,-0.070312 c -0.556641,-0.1171875 -0.958008,-0.2958984 -1.207031,-0.5390625 -0.243164,-0.2402343 -0.363282,-0.5742187 -0.363282,-0.9960937 0,-0.515625 0.178711,-0.9140625 0.539063,-1.1953125 0.366211,-0.28125 0.884766,-0.421875 1.558594,-0.421875 0.328125,0 0.635742,0.029297 0.925781,0.082031 0.295898,0.046875 0.568359,0.1171875 0.820312,0.2109372 z m 6.383789,2.3554688 v 0.4335937 h -4.125 c 0.03809,0.6181641 0.222657,1.0898438 0.550782,1.4179688 0.333984,0.32226561 0.802734,0.48046874 1.40625,0.48046874 0.342773,0 0.673828,-0.0410156 0.996093,-0.12890625 0.328125,-0.0849609 0.647461,-0.2109375 0.960938,-0.37499999 v 0.84374999 c -0.322266,0.140625 -0.650391,0.24609375 -0.984375,0.31640625 -0.336914,0.0703125 -0.679688,0.10546875 -1.03125,0.10546875 -0.875977,0 -1.567383,-0.25195313 -2.074219,-0.76171875 -0.509765,-0.50683594 -0.761719,-1.19531254 -0.761719,-2.06250004 0,-0.890625 0.240235,-1.5966796 0.726563,-2.1210937 0.483398,-0.5302734 1.136719,-0.796875 1.957031,-0.796875 0.732422,0 1.3125,0.2402344 1.734375,0.7148437 0.427735,0.46875 0.644531,1.1132813 0.644531,1.9335938 z m -0.890625,-0.2695313 c -0.0088,-0.4921875 -0.149414,-0.8818359 -0.421875,-1.171875 -0.266601,-0.2958984 -0.618164,-0.4453125 -1.054687,-0.4453125 -0.509766,0 -0.914063,0.1464844 -1.21875,0.4335938 -0.298828,0.28125 -0.46582,0.6796875 -0.503906,1.1953125 z m 5.961915,-1.4179687 v -2.953125 h 0.902343 v 7.59374999 h -0.902343 v -0.8203125 c -0.1875,0.328125 -0.427735,0.57128906 -0.714844,0.7265625 -0.290039,0.15527344 -0.632813,0.234375 -1.03125,0.234375 -0.665039,0 -1.204102,-0.26074219 -1.617188,-0.78515625 -0.416015,-0.53027344 -0.621093,-1.22460934 -0.621093,-2.08593754 0,-0.8583984 0.205078,-1.5498046 0.621093,-2.0742187 0.413086,-0.5302734 0.952149,-0.796875 1.617188,-0.796875 0.398437,0 0.741211,0.082031 1.03125,0.2460937 0.287109,0.1582032 0.527344,0.3955079 0.714844,0.7148438 z m -3.058594,1.9101562 c 0,0.6650391 0.134765,1.1835938 0.410156,1.5585938 0.272461,0.37499999 0.647461,0.56249999 1.125,0.56249999 0.46875,0 0.837891,-0.1875 1.113281,-0.56249999 0.272461,-0.375 0.410157,-0.8935547 0.410157,-1.5585938 0,-0.65625 -0.137696,-1.171875 -0.410157,-1.546875 -0.27539,-0.3808593 -0.644531,-0.5742187 -1.113281,-0.5742187 -0.477539,0 -0.852539,0.1933594 -1.125,0.5742187 -0.275391,0.375 -0.410156,0.890625 -0.410156,1.546875 z m 0,0"
       style="fill:#000000;fill-opacity:1;fill-rule:nonzero;stroke:none"
       aria-label="supervised"
       transform="matrix(1.3333333,0,0,1.3333333,220.45837,42.220841)" />
  </g>
</svg>
